<svg width="176" height="175" viewBox="0 0 176 175" fill="none" xmlns="http://www.w3.org/2000/svg">
<g opacity="0.8" clip-path="url(#clip0_124_100790)">
<path d="M0.583984 87.4424C3.95995 77.9617 19.4627 72.453 13.7436 61.281C13.2272 60.06 12.6967 58.9126 12.3314 57.9161C10.9121 54.06 12.0749 50.7337 13.3817 47.3161C15.0047 43.0705 15.7671 37.1687 20.211 34.5968C23.1724 32.8845 26.8048 31.9372 30.2616 30.667C30.6059 30.5407 30.9501 30.4073 31.2733 30.267C33.5251 27.1828 36.1247 26.4389 39.2021 24.9758C39.4621 24.7407 39.6974 24.4986 39.9328 24.2494C46.358 15.2494 56.7178 13.4916 66.8738 11.0108C68.9043 10.5126 70.9278 9.9898 72.9091 9.36874C74.7675 8.6319 76.257 7.54769 77.8097 6.36523" stroke="#8E8BDE" stroke-width="0.84375" stroke-linecap="round" stroke-linejoin="round"/>
<path d="M0.320312 88.5897C4.4867 78.4844 20.5129 70.8774 12.7949 58.8037C12.2012 56.8107 12.1977 54.9581 12.4963 53.1616C12.7949 51.3651 13.3956 49.6283 14.0104 47.8669C15.5245 43.516 16.1568 37.4704 20.5761 34.7967C23.26 33.1721 26.4744 32.1862 29.615 31.0248C29.9628 30.8949 30.3106 30.7651 30.6584 30.6283C31.2942 30.516 32.039 30.144 32.4113 29.7721C33.8973 26.4318 37.614 26.8037 39.7008 24.709C39.9431 24.4563 40.1891 24.2037 40.4314 23.9511C46.7513 15.5019 56.837 13.5791 66.6874 11.0248C68.6582 10.5125 70.6184 9.97914 72.5365 9.35809C74.7673 8.62124 76.998 7.19317 78.772 5.89844" stroke="#8E8BDE" stroke-width="0.84375" stroke-linecap="round" stroke-linejoin="round"/>
<path d="M0.175781 89.7405C3.69929 82.9475 8.9547 76.6492 13.9466 70.6142C16.5743 67.4668 14.2101 63.53 13.49 60.2212C12.8049 58.0633 12.8155 56.0177 13.1562 54.0282C13.497 52.0387 14.1644 50.1089 14.7968 48.1791C16.216 43.8352 16.7676 37.7685 21.0218 35.0247C23.7654 33.2528 27.0254 32.158 30.2117 30.8808C30.5314 30.7545 30.8476 30.6247 31.1567 30.4878C33.528 27.551 36.4999 26.4387 39.637 24.9896C39.8548 24.7721 40.0656 24.5475 40.2799 24.3264C44.3022 20.5019 47.6466 16.4212 52.8458 14.565C58.7897 12.337 65.3941 11.9264 71.3592 9.89136C72.8487 9.38259 74.2995 8.77557 75.6907 8.0282C77.0818 7.3089 78.4132 6.47381 79.6638 5.4668" stroke="#8E8BDE" stroke-width="0.84375" stroke-linecap="round" stroke-linejoin="round"/>
<path d="M0.197266 91.1757C1.8589 82.6845 9.47854 77.1722 14.207 70.3511C16.0478 67.9897 15.7843 64.0529 14.1086 61.2038C13.4517 59.0424 13.4833 56.9546 13.8417 54.916C14.2 52.8774 14.885 50.888 15.4857 48.909C16.8452 44.4353 17.2703 38.1371 21.4789 35.2459C23.9941 33.5195 26.8642 32.2845 29.7168 31.0283C30.0329 30.888 30.3526 30.7476 30.6688 30.6073C32.0951 29.2634 33.5494 28.2178 35.0987 27.2985C36.6479 26.3792 38.292 25.5827 40.0906 24.7301C44.6645 20.1231 49.1224 15.6704 55.4388 13.8143C59.7105 12.702 64.3547 12.1441 68.7389 11.0003C70.931 10.4283 73.0563 9.70902 75.0412 8.70902C77.026 7.75464 78.8668 6.5792 80.4828 5.02832" stroke="#8E8BDE" stroke-width="0.84375" stroke-linecap="round" stroke-linejoin="round"/>
<path d="M0.390625 92.4143C1.85905 83.7371 8.42831 77.6985 13.9437 71.1406C16.5714 67.9932 14.9941 64.3196 14.4495 60.8213C14.1509 58.909 14.2879 57.1406 14.6498 55.3827C15.0081 53.6248 15.5913 51.881 16.1639 50.0248C17.548 45.5406 17.7342 38.5476 21.9603 35.4564C24.4791 33.6143 27.3843 32.2599 30.2825 30.8775C30.6057 30.7231 30.9289 30.5687 31.231 30.4073C32.7732 29.4108 33.1456 26.8108 35.3763 26.4424C37.2347 26.0704 39.0931 26.0704 40.2102 24.7336C44.6646 20.8739 48.7502 16.0494 54.6942 14.1967C59.1521 12.7125 64.1687 12.2494 68.8796 11.1336C70.4499 10.7617 71.985 10.3196 73.457 9.74061C76.2428 8.2564 79.2147 7.14412 81.2452 4.63184" stroke="#8E8BDE" stroke-width="0.84375" stroke-linecap="round" stroke-linejoin="round"/>
<path d="M0.689453 93.3932C1.86279 83.7371 9.21895 77.4389 14.7343 69.302C16.0482 66.9406 15.7847 64.5792 15.2859 61.8915C15.0154 60.0038 15.177 58.1897 15.5564 56.3757C15.9358 54.5582 16.5295 52.7406 17.0634 50.8283C18.3667 46.1547 18.3105 38.9511 22.5366 35.6634C24.7287 33.9582 27.244 32.6213 29.8015 31.3055C30.1212 31.1406 30.4408 30.9757 30.7605 30.8143C33.1528 27.5511 36.4937 26.4389 39.8732 25.109C40.1542 24.8775 40.4212 24.6318 40.6776 24.3792C47.0994 16.1968 56.4263 13.5476 66.2345 11.3862C68.1983 10.9547 70.1796 10.5406 72.1609 10.109C75.8776 9.36518 79.5909 7.14061 81.9656 4.23535" stroke="#8E8BDE" stroke-width="0.84375" stroke-linecap="round" stroke-linejoin="round"/>
<path d="M1.05078 94.1472C1.59881 85.0454 7.90459 78.2244 13.42 71.663C15.2608 69.3016 16.8346 66.1507 16.3076 62.9577C15.9388 61.2419 16.1214 59.3928 16.5325 57.4875C16.9435 55.5823 17.5863 53.6174 18.0711 51.656C19.262 46.8209 18.9459 39.3437 23.172 35.8665C25.3219 34.0946 27.8021 32.6665 30.3314 31.2595C30.6476 31.084 30.9638 30.9086 31.2764 30.7297C33.1523 27.5472 36.1243 26.4314 39.4897 25.4384C39.8094 25.2279 40.094 24.9963 40.3645 24.7507C45.0473 20.4946 49.5052 15.67 55.8216 13.8139C60.6519 12.7016 65.6684 12.1437 70.3196 10.8244C71.8688 10.3858 73.3794 9.85948 74.8303 9.20334C77.746 7.87351 80.3456 6.3893 82.6396 3.91211" stroke="#8E8BDE" stroke-width="0.84375" stroke-linecap="round" stroke-linejoin="round"/>
<path d="M1.45117 94.7156C2.12215 84.5191 9.21484 76.9121 15.2607 69.3016C16.3111 67.7261 17.1015 65.891 17.3439 63.8209C17.2033 61.9261 17.4352 60.0524 17.8287 58.1788C18.2221 56.3016 18.7807 54.4244 19.1917 52.5121C20.2667 47.5226 19.6519 39.7507 23.8604 36.07C25.9577 34.2384 28.3922 32.7121 30.8934 31.2103C31.2061 31.0209 31.5187 30.8349 31.8068 30.6349C33.5246 27.1823 36.4966 26.4384 40.0236 25.1051C40.3012 24.8665 40.5752 24.6244 40.8457 24.3753C45.0402 20.1296 49.1293 16.0489 54.7008 14.5612C59.7174 12.891 65.1027 12.1507 70.1122 10.7437C71.7809 10.277 73.4074 9.73315 74.9672 9.06297C78.1113 7.50859 81.0833 6.39631 83.2543 3.70508" stroke="#8E8BDE" stroke-width="0.84375" stroke-linecap="round" stroke-linejoin="round"/>
<path d="M1.87305 95.1157C2.6459 84.5192 10.0021 76.1227 16.8348 68.2525C17.3617 67.2034 17.8852 66.1543 17.9906 64.9367C18.1522 63.0631 18.5843 61.0806 19.0796 59.1473C19.5749 57.2139 20.1475 55.3297 20.4497 53.642C21.4965 47.8104 20.8466 40.3929 24.6512 36.2455C26.3233 34.421 28.5998 32.842 31.0518 31.2701C31.3574 31.0736 31.6666 30.8771 31.9476 30.6666C32.7345 28.7367 34.0554 27.7718 35.5554 27.0631C37.0555 26.3508 38.7347 25.8946 40.2347 24.9824C46.7162 16.9192 55.7937 14.028 65.7354 11.7859C67.7237 11.3367 69.7472 10.9157 71.7918 10.4806C76.6221 9.73674 79.9665 6.39989 83.8202 3.64551" stroke="#8E8BDE" stroke-width="0.84375" stroke-linecap="round" stroke-linejoin="round"/>
<path d="M2.30078 95.4067C3.43898 85.3085 9.21783 76.3857 15.7871 69.3015C16.8375 68.2524 17.6279 66.9401 18.2918 65.5471C18.8539 63.698 19.4511 61.7366 20.0308 59.8032C20.6104 57.8699 21.1971 55.9611 21.5659 54.1997C22.8095 48.2489 21.7521 40.712 25.4688 36.4208C26.8775 34.7927 28.7464 33.305 30.798 31.8348C31.0896 31.6243 31.3882 31.4138 31.6868 31.2067C33.5241 27.5471 36.1272 26.4348 39.8791 25.2839C40.1882 25.0559 40.4692 24.8173 40.7468 24.5717C45.0431 20.498 49.1287 16.0418 55.0762 14.5576C60.2789 13.0734 65.6643 12.2383 70.723 10.6875C72.4092 10.1717 74.0568 9.57517 75.6517 8.86289C78.852 7.88043 81.8275 5.65236 84.3955 3.46289" stroke="#8E8BDE" stroke-width="0.84375" stroke-linecap="round" stroke-linejoin="round"/>
<path d="M2.73633 95.6875C3.17545 83.4735 11.582 75.0735 18.362 66.0665C19.2227 64.2173 19.9113 62.2945 20.5471 60.3682C21.1865 58.4419 21.8083 56.5121 22.3598 54.6384C23.9161 49.3472 22.0085 40.6629 26.326 36.5893C28.1141 34.9015 30.0602 33.3261 32.0521 31.7612C32.3366 31.5366 32.6212 31.3156 32.8847 31.0805C33.8894 27.9191 36.1201 26.0665 39.6436 25.5787C39.9633 25.3647 40.2444 25.1261 40.5113 24.8805C47.0666 16.5893 56.4146 13.6594 66.2298 11.6279C68.1936 11.2208 70.1749 10.8489 72.1562 10.4805C76.9866 9.36821 81.4445 6.76821 84.9645 3.29102" stroke="#8E8BDE" stroke-width="0.84375" stroke-linecap="round" stroke-linejoin="round"/>
<path d="M3.1836 95.9654C3.17658 88.7198 7.11462 82.1619 11.0562 76.1268C14.4708 70.6145 18.9393 66.6812 20.8047 60.7934C21.5248 58.8426 22.2345 56.8777 22.9019 54.9619C24.7006 49.7969 23.2532 40.7303 27.251 36.7478C28.7545 35.2531 30.36 33.811 32.0076 32.3899C32.2816 32.1513 32.5591 31.9162 32.8331 31.6777C33.5498 29.8005 34.4666 28.4882 35.6751 27.4952C36.8836 26.5022 38.3906 25.818 40.2876 25.2005C44.2959 21.2426 48.385 17.1619 53.5842 14.9338C59.1558 12.8917 65.1946 12.1513 70.8154 10.6706C72.6878 10.1794 74.5145 9.60397 76.264 8.8987C79.5943 7.51274 82.9387 5.6566 85.5383 3.13379" stroke="#8E8BDE" stroke-width="0.84375" stroke-linecap="round" stroke-linejoin="round"/>
<path d="M3.63672 96.2489C4.75033 85.0454 11.3196 75.8629 18.1523 66.9401C19.4662 65.1015 19.9931 63.0033 20.8924 61.084C21.6829 59.1156 22.4768 57.1507 23.2461 55.1928C25.3399 49.877 24.5073 41.0314 28.2943 36.8103C29.703 35.2384 31.2346 33.7226 32.819 32.2208C33.0825 31.9717 33.3459 31.7191 33.5778 31.4524C34.2663 27.9191 36.8695 26.4349 40.0663 25.484C40.3614 25.2454 40.6248 24.9928 40.8918 24.7436C45.7889 19.7542 50.6192 15.3015 57.3044 13.8173C60.8947 13.0735 64.4885 12.4559 67.9487 11.6419C69.6806 11.2349 71.3774 10.7787 73.025 10.2314C77.7394 8.62083 82.5697 6.39276 86.0932 3.08398" stroke="#8E8BDE" stroke-width="0.84375" stroke-linecap="round" stroke-linejoin="round"/>
<path d="M4.0957 96.5578C4.48916 87.9332 10.0045 81.3718 13.9461 74.2876C16.3103 69.8279 19.465 65.6279 21.1617 61.0139C21.629 59.863 22.1067 58.7121 22.581 57.5648C23.0587 56.4174 23.533 55.27 23.9967 54.1192C26.0904 48.9367 25.8094 41.1121 29.2205 36.849C30.299 35.5016 31.4758 34.1893 32.7089 32.9016C32.9548 32.6455 33.2042 32.3858 33.4571 32.1297C34.0473 30.2104 34.901 28.7858 36.0532 27.6981C37.2055 26.6139 38.6634 25.8665 40.4585 25.2981C47.6847 15.4174 58.9508 13.7718 70.0307 11.1367C72.2474 10.6104 74.4571 10.042 76.6246 9.39635C80.7102 8.24899 83.3098 4.90863 86.6787 2.92969" stroke="#8E8BDE" stroke-width="0.84375" stroke-linecap="round" stroke-linejoin="round"/>
<path d="M4.5625 96.9017C9.47715 84.5228 17.0968 73.7614 21.5126 61.5193C21.9833 60.3123 22.4646 59.1088 22.9389 57.9088C23.4131 56.7088 23.8839 55.5088 24.33 54.3088C26.3113 48.9859 26.8453 41.2947 30.1299 36.8C31.1522 35.4 32.2834 34.0386 33.4743 32.6982C33.7132 32.4316 33.9556 32.1649 34.1663 31.8807C34.2647 28.2912 37.2367 27.1754 40.2684 25.6105C40.5529 25.3649 40.8094 25.1088 41.0693 24.8526C45.4114 20.4982 50.2382 15.6737 56.5545 14.1895C60.3942 13.2 64.2339 12.4561 67.9295 11.5684C69.7773 11.1228 71.59 10.6421 73.35 10.0772C78.472 8.62455 83.3023 6.39648 87.2755 2.79297" stroke="#8E8BDE" stroke-width="0.84375" stroke-linecap="round" stroke-linejoin="round"/>
<path d="M5.03352 97.3018C5.01244 95.2808 6.06282 93.179 7.1132 91.6071C13.9424 82.1615 18.6744 72.7123 22.2401 62.3404C22.6967 61.0667 23.164 59.793 23.6136 58.5194C24.0633 57.2457 24.4884 55.9685 24.8643 54.6983C26.5013 49.1299 27.7308 41.4387 30.9628 36.6983C31.7532 35.5404 32.6104 34.4071 33.5167 33.2913C33.7451 33.0141 33.9734 32.7334 34.2053 32.4597C34.4195 30.3755 35.2697 29.0562 36.4817 28.0036C37.6936 26.9545 39.2604 26.1755 40.915 25.1755C48.0674 15.0913 60.0959 13.9264 71.2179 10.8106C73.4417 10.186 75.6302 9.49832 77.7415 8.70183C81.4512 7.50885 84.0544 4.1685 87.9151 2.63867" stroke="#8E8BDE" stroke-width="0.84375" stroke-linecap="round" stroke-linejoin="round"/>
<path d="M5.49805 97.7897C5.53669 96.8564 5.80016 95.5441 6.32711 94.4914C13.1563 83.9967 22.0898 76.123 23.7269 63.4142C24.0817 62.0704 24.447 60.7195 24.7913 59.3721C25.1356 58.0213 25.4623 56.6704 25.7328 55.3265C26.9623 49.2528 28.371 41.6984 31.7119 36.5511C32.4847 35.3581 33.3278 34.1932 34.2201 33.0458C34.4414 32.7581 34.6698 32.4739 34.856 32.1686C34.9297 30.2318 35.6183 28.9862 36.6792 28.0142C37.7436 27.0458 39.1804 26.3546 40.7578 25.53C48.3809 16.4177 59.8965 11.9651 71.7879 10.8493C73.5514 10.7581 75.1322 10.3195 76.5971 9.6809C81.0762 7.8809 84.0482 4.16862 88.5834 2.50195" stroke="#8E8BDE" stroke-width="0.84375" stroke-linecap="round" stroke-linejoin="round"/>
<path d="M5.9375 98.3961C6.32744 97.6417 6.32744 96.5926 6.5874 95.8067C12.6297 85.5716 24.7143 80.326 26.0844 67.6839C26.2811 66.4312 26.4462 65.1716 26.5868 63.9049C26.8643 61.3716 27.0434 58.8137 27.0997 56.2347C27.2437 49.6558 28.7508 42.0698 32.4042 36.3575C33.1139 35.2523 33.8727 34.1646 34.6701 33.0909C34.8704 32.8242 35.0671 32.554 35.2287 32.2663C35.1163 30.0944 35.8961 28.9154 37.0624 27.9996C38.2288 27.0839 39.778 26.4312 41.2113 25.3154C45.0369 20.8698 49.4949 17.1575 54.6976 15.3049C58.7832 13.8207 62.9952 12.7891 67.1265 11.7014C69.1921 11.1575 71.2367 10.5996 73.2355 9.96455C78.8458 7.88034 84.7932 6.76806 89.3144 2.31543" stroke="#8E8BDE" stroke-width="0.84375" stroke-linecap="round" stroke-linejoin="round"/>
<path d="M6.3418 99.1617C8.69198 91.0845 16.5716 86.3617 22.8774 81.1126C26.0285 78.488 28.1328 74.8143 29.3096 71.2038C29.6961 70.088 30.0052 68.9231 30.223 67.7371C30.8729 64.1827 30.7359 60.4599 29.5801 57.4213C27.2651 51.3406 28.9091 42.509 33.0404 36.1266C33.5814 35.288 34.1505 34.4599 34.7372 33.6424C34.9339 33.3687 35.1306 33.095 35.3309 32.8248C35.5381 30.9301 36.2021 29.5196 37.2103 28.3968C38.222 27.2705 39.5816 26.4319 41.1835 25.6775C47.7984 17.3476 57.4169 13.6389 67.5343 11.5617C69.5578 11.1476 71.6023 10.7968 73.6434 10.488C79.9597 9.37571 84.0453 4.17922 90.1016 2.14062" stroke="#8E8BDE" stroke-width="0.84375" stroke-linecap="round" stroke-linejoin="round"/>
<path d="M6.69531 100.137C10.0045 90.8209 19.4615 86.6209 26.8176 80.849C28.395 79.2735 29.9688 77.1753 31.1983 74.9963C31.8377 73.8525 32.4419 72.677 33.0215 71.463C35.1047 67.0875 36.5451 61.5788 33.2499 57.3542C28.2017 50.877 29.3118 42.5402 33.6363 35.8595C34.1914 35.0033 34.7675 34.1577 35.3647 33.3226C35.5649 33.0454 35.7511 32.7577 35.9022 32.4525C36.12 28.663 37.9783 27.1788 41.1716 26.0174C45.0394 20.4981 50.611 17.5297 56.555 14.5612C60.8267 12.7051 65.3795 12.1507 69.8375 11.3156C72.0682 10.8981 74.2744 10.4104 76.4103 9.68404C81.8203 8.62439 85.5335 3.4279 90.9751 1.91211" stroke="#8E8BDE" stroke-width="0.84375" stroke-linecap="round" stroke-linejoin="round"/>
<path d="M6.99023 101.386C8.95047 97.1191 12.1051 93.4454 15.7832 90.2945C22.089 85.5717 29.4452 82.9472 33.8891 76.284C34.669 75.1822 35.4172 74.0419 36.1374 72.8594C39.3412 67.5647 40.2546 61.7472 37.5004 57.6384C33.2181 51.2489 28.7882 43.7612 34.2825 35.477C34.676 34.884 35.0765 34.298 35.4875 33.7191C35.6912 33.4279 35.8985 33.1401 36.0741 32.8349C36.1233 29.0349 38.7229 27.5507 41.4209 26.1752C48.4609 17.4243 58.4061 13.905 69.0504 11.2559C71.1793 10.7261 73.3363 10.2314 75.5038 9.74715C80.703 8.99627 84.4197 4.91206 88.8777 2.31557C89.6224 1.94364 90.736 1.94364 91.9164 1.6875" stroke="#8E8BDE" stroke-width="0.84375" stroke-linecap="round" stroke-linejoin="round"/>
<path d="M7.24023 102.948C10.5284 91.867 23.14 89.246 31.1285 82.7512C32.0699 81.9968 32.9376 81.2144 33.7878 80.4039C34.6133 79.5933 35.4178 78.7582 36.1977 77.8881C37.0829 76.8495 37.9296 75.7688 38.7305 74.6354C41.9168 70.1407 44.4567 62.6775 41.2423 58.0109C35.9974 50.3968 28.023 45.4319 34.8592 35.1653C35.0595 34.867 35.2597 34.5688 35.4635 34.2705C35.6672 33.9723 35.8745 33.681 36.0782 33.3828C36.4893 30.1407 37.9752 27.5442 41.3723 26.5653C48.4509 18.1021 58.1432 14.1161 68.7032 11.5196C70.8145 11.0003 72.961 10.5372 75.1285 10.1091C80.7 9.36175 84.7891 5.28105 89.6195 1.9407C90.7331 1.56877 91.8502 2.31263 92.9322 1.47754" stroke="#8E8BDE" stroke-width="0.84375" stroke-linecap="round" stroke-linejoin="round"/>
<path d="M7.45703 104.68C10.5274 92.9189 24.9762 91.6066 33.2563 85.4382C34.254 84.7434 35.2166 84.0206 36.151 83.2627C37.089 82.5048 38.0023 81.7118 38.8876 80.8803C39.8361 79.8487 40.6827 78.7364 41.431 77.561C45.1548 71.7048 46.4194 64.3399 44.5786 59.1469C41.8245 51.382 27.8779 46.3855 35.5011 34.9259C35.7013 34.6241 35.9086 34.3224 36.1159 34.0206C36.3231 33.7224 36.5304 33.4206 36.7236 33.1119C36.6077 31.2557 37.2014 29.954 38.2131 28.9154C39.2249 27.8733 40.6511 27.0908 42.2074 26.2697C48.3059 18.7048 56.9443 15.5259 65.8778 12.7048C68.112 11.9996 70.3639 11.3189 72.5981 10.5961C75.5033 10.1013 78.1064 8.61712 81.0784 7.87326C85.9088 6.38905 88.8807 1.56448 94.0413 1.28027" stroke="#8E8BDE" stroke-width="0.84375" stroke-linecap="round" stroke-linejoin="round"/>
<path d="M7.66211 106.523C11.0556 94.491 25.5045 93.7051 34.2764 87.1682C35.3303 86.4805 36.3631 85.7682 37.3784 85.0244C38.3936 84.2805 39.3878 83.5086 40.3644 82.698C41.3796 81.6735 42.279 80.5858 43.0764 79.4454C47.0566 73.7612 48.5531 66.7472 47.3025 60.8419C45.4266 51.9963 28.7259 46.1717 36.2191 34.7858C36.4053 34.5051 36.5915 34.2244 36.7847 33.9437C37.013 32.2314 37.4978 30.6349 38.3831 29.3577C39.2683 28.0805 40.5541 27.1261 42.3843 26.7051C49.5543 18.7507 59.0042 14.3331 69.2656 11.7928C71.3172 11.284 73.4039 10.8524 75.5082 10.4875C81.0798 9.36471 85.1689 5.65593 89.9992 2.68751C91.4852 1.94365 93.3436 0.831373 95.2546 1.09804" stroke="#8E8BDE" stroke-width="0.84375" stroke-linecap="round" stroke-linejoin="round"/>
<path d="M7.85156 108.389C11.3154 96.3295 25.5043 94.7541 34.6485 88.6173C35.7481 87.9155 36.8195 87.1997 37.8734 86.4559C38.9238 85.7155 39.9531 84.9506 40.9578 84.1541C42.0047 83.1611 42.9391 82.126 43.7963 81.0348C48.054 75.6173 50.3972 68.8138 49.6454 62.7436C48.711 55.1892 44.2987 52.9716 38.5831 47.2453C34.9823 43.6383 34.2621 39.1401 37.0233 34.7366C37.2025 34.4523 37.3851 34.1681 37.5678 33.8839C37.3992 31.8313 38.0596 30.4313 39.1416 29.3295C40.2201 28.2278 41.7201 27.4208 43.2448 26.5681C48.3843 21.2418 54.3282 17.1576 61.0169 14.933C62.935 14.3155 64.8355 13.705 66.7079 13.0839C68.5803 12.4594 70.4282 11.8208 72.2444 11.1401C78.8488 8.25235 85.5375 6.02779 92.2262 1.94358C93.7122 1.19972 95.1981 1.19972 96.5612 0.954102" stroke="#8E8BDE" stroke-width="0.84375" stroke-linecap="round" stroke-linejoin="round"/>
<path d="M8.01367 110.203C11.3194 97.9049 26.0317 97.3821 35.1865 90.547C36.5882 89.7225 37.9758 88.8804 39.3459 88.0032C40.5052 87.2979 41.6469 86.5786 42.7746 85.8418C44.0884 84.8839 45.188 83.8839 46.14 82.8242C50.8649 77.554 51.831 70.8523 51.831 64.6909C51.831 57.6172 47.6506 52.2558 41.5099 47.0944C37.3505 43.5961 34.786 40.0172 37.9583 34.7961C38.1339 34.5049 38.3131 34.2137 38.4501 33.9049C37.9829 30.147 40.5825 28.6628 43.4947 27.2663C49.7267 20.5295 57.7504 16.7996 66.1464 13.6312C68.2471 12.8382 70.369 12.0839 72.4943 11.3225C79.9664 9.36807 86.2827 5.28386 93.3403 1.57509C94.8263 0.831226 96.3123 1.57509 97.9669 0.918945" stroke="#8E8BDE" stroke-width="0.84375" stroke-linecap="round" stroke-linejoin="round"/>
<path d="M8.12305 111.902C11.3199 98.9546 27.0826 96.8563 36.3041 89.2668C37.5512 88.4668 38.7773 87.6704 39.9998 86.8668C41.2153 86.0668 42.4272 85.2563 43.6322 84.4353C44.9425 83.3686 46.1369 82.2423 47.2049 81.0072C50.3947 77.3125 52.4146 72.6668 52.6676 66.0493C52.8783 60.5581 49.5902 51.144 44.4858 47.0668C40.3686 43.7791 36.1355 41.151 38.7175 35.6002C38.8124 35.3932 38.9178 35.1861 39.0337 34.9721C38.8826 32.93 39.3639 31.3546 40.33 30.0984C41.2996 28.8423 42.7539 27.9054 44.5737 27.1861C51.3291 20.0072 60.3504 16.6247 69.4666 13.0809C71.7465 12.1931 74.03 11.2984 76.2888 10.351C81.4564 8.25631 86.6556 6.03175 91.4859 2.69139C94.0855 0.835254 96.6886 0.463324 99.5025 0.982622" stroke="#8E8BDE" stroke-width="0.84375" stroke-linecap="round" stroke-linejoin="round"/>
<path d="M8.18555 113.467C11.8426 103.677 22.6133 100.263 31.4976 96.4176C33.0328 95.6807 34.5328 94.9228 35.9802 94.1193C37.417 93.3158 38.8011 92.4632 40.0974 91.5334C41.2953 90.8702 42.4897 90.2071 43.6771 89.5474C45.142 88.7228 46.5929 87.8878 48.0297 87.0386C49.744 85.979 51.2897 84.8386 52.593 83.586C56.496 79.8316 58.1646 75.0807 55.3683 68.6141C54.0685 65.6035 54.2512 60.7193 53.0287 57.1825C51.8026 53.6421 50.1515 50.4913 47.5168 47.7965C44.1584 44.3614 37.0306 41.6246 39.8199 35.9334C39.9112 35.7509 40.0096 35.5614 40.122 35.372C40.1677 33.3158 40.6524 31.8211 41.5518 30.6492C50.0321 23.4246 59.4433 17.3228 69.8699 13.3439C71.9566 12.5474 74.0819 11.8351 76.2494 11.2351C85.1689 8.62109 91.4852 0.0877567 101.163 0.175476" stroke="#8E8BDE" stroke-width="0.84375" stroke-linecap="round" stroke-linejoin="round"/>
<path d="M8.24414 114.912C8.71488 113.08 9.44558 111.505 10.3835 110.133C12.256 107.386 14.9469 105.438 17.961 103.866C19.4681 103.08 21.0595 102.389 22.6684 101.736C27.576 99.9154 32.4064 98.0593 36.78 95.9154C38.2906 95.2312 39.7415 94.5119 41.101 93.7294C42.4535 93.1575 43.7954 92.6066 45.1339 92.0698C46.4723 91.533 47.8073 91.0137 49.1422 90.5014C50.5685 89.7961 51.8472 88.9716 52.9819 88.0523C58.6378 83.4593 60.605 76.4487 58.2092 70.0873C55.7185 63.4698 55.1564 55.1645 50.0591 48.5049C47.5403 45.2137 39.9944 41.5751 41.2591 36.8873C41.3434 36.5751 41.4663 36.2593 41.6314 35.9365C41.4769 33.9716 41.9546 32.5224 42.8891 31.3224C50.2699 24.0944 59.2771 19.7891 68.5338 15.3119C70.3851 14.4172 72.247 13.5154 74.1054 12.5786C84.0471 9.73647 92.2218 -0.653007 102.993 1.3119" stroke="#8E8BDE" stroke-width="0.84375" stroke-linecap="round" stroke-linejoin="round"/>
<path d="M8.27734 115.92C9.09235 114.095 10.1217 112.502 11.3161 111.095C12.5105 109.688 13.87 108.464 15.349 107.372C16.8279 106.281 18.4263 105.327 20.0915 104.457C27.2052 101.4 33.8939 98.432 40.8145 95.2811C42.4691 94.453 44.057 93.5758 45.543 92.6179C47.3873 91.9442 49.0314 91.3513 50.556 90.7056C58.1229 87.5407 63.2238 82.7337 60.7998 71.7407C60.0235 68.2249 56.8266 64.7899 55.7446 60.9372C54.5221 56.5828 54.9156 53.7162 52.3862 49.4179C50.5138 46.2355 43.6706 41.8881 43.3228 37.9162C43.2982 37.632 43.3052 37.3513 43.3474 37.0671C43.2666 35.2776 43.5054 33.7337 44.2151 32.4355C50.96 26.2109 58.6569 21.6635 66.6735 17.453C68.6759 16.4004 70.6994 15.3688 72.7334 14.3372C84.0557 11.225 92.9716 -1.39259 104.93 1.7232" stroke="#8E8BDE" stroke-width="0.84375" stroke-linecap="round" stroke-linejoin="round"/>
<path d="M8.40039 117.207C19.0306 106.221 35.0077 102.509 48.3148 95.5124C49.4881 95.0423 50.6755 94.5932 51.8699 94.1686C53.2997 93.5756 54.5714 92.8353 55.692 91.9791C61.3023 87.6879 63.2063 80.4177 62.8058 73.5686C62.5669 69.4774 59.4755 66.2388 57.7577 62.4388C55.9625 58.4598 56.1803 54.6212 54.3325 50.6317C53.0573 47.8809 48.7785 44.0002 46.755 40.523C46.5724 40.2072 46.4073 39.8949 46.2562 39.5756C45.2761 37.4563 45.1601 35.5651 45.7292 33.9581C47.2679 30.5124 50.9847 28.6598 53.9566 26.8037C59.5282 23.0458 64.9979 19.6528 70.4395 16.316C72.2522 15.2037 74.0649 14.0949 75.8776 12.9861C85.9071 8.62122 95.5678 -0.655976 106.918 2.43174" stroke="#8E8BDE" stroke-width="0.84375" stroke-linecap="round" stroke-linejoin="round"/>
<path d="M8.57227 118.498C21.2611 107.333 37.6105 102.881 52.3931 96.379C53.8264 95.8948 55.0911 95.2351 56.2152 94.4351C61.8325 90.4457 63.8841 82.9615 64.3161 76.5053C64.5831 72.5158 62.932 68.8071 60.8769 65.2386C58.2071 60.6036 57.5642 57.2001 56.2504 52.3264C55.8183 50.7229 54.6519 48.8562 53.3416 46.9123C45.4128 39.0562 47.6436 30.1474 57.3042 25.6948C61.2985 24.0246 64.9906 22.0071 68.5141 19.779C70.2777 18.6667 71.9955 17.5018 73.6888 16.2983C84.052 10.1053 95.9435 -2.14029 109.05 3.28427" stroke="#8E8BDE" stroke-width="0.84375" stroke-linecap="round" stroke-linejoin="round"/>
<path d="M8.78516 119.786C23.1181 109.189 40.2087 103.624 56.5967 96.6979C58.0054 95.726 59.1928 94.5014 60.194 93.112C63.1976 88.947 64.5325 83.312 65.2492 78.6523C66.5982 69.8313 59.9376 62.1084 57.749 53.6102C57.3555 52.0804 56.4246 50.2488 55.3637 48.312C53.2137 44.2488 50.2418 40.9085 49.8729 36.0839C49.8729 33.1155 52.8449 31.2593 55.0756 30.1471C61.0652 26.3892 66.5349 22.4242 71.8922 18.4067C73.6768 17.0664 75.4509 15.7225 77.2284 14.3927C87.0261 8.25232 98.9175 -1.76522 111.195 4.30495" stroke="#8E8BDE" stroke-width="0.84375" stroke-linecap="round" stroke-linejoin="round"/>
<path d="M9.05273 121.087C24.6047 112.902 40.2093 105.48 56.6992 99.0243C58.122 98.0805 59.3199 96.8524 60.3351 95.4419C63.3844 91.2173 64.8142 85.3822 65.7943 80.8735C67.9337 71.0454 61.5893 63.7857 58.9475 54.8033C58.5576 53.477 57.8936 51.9085 57.1489 50.2314C51.7283 42.7647 50.2424 33.1156 59.8995 28.291C63.9851 26.3121 67.744 24.0454 71.3062 21.5682C73.0872 20.3296 74.8226 19.0419 76.5264 17.7121C87.0232 9.73311 99.6559 -3.25636 113.469 5.33662" stroke="#8E8BDE" stroke-width="0.84375" stroke-linecap="round" stroke-linejoin="round"/>
<path d="M9.4043 122.565C24.9773 115.87 38.7236 105.478 56.5589 102.137C58.0449 101.765 58.4173 100.281 59.5134 99.6635C60.6516 98.3933 61.6176 96.8424 62.4432 95.1547C64.9163 90.081 66.0967 83.7301 66.6623 79.7477C68.0815 69.7828 62.0251 64.0705 59.4466 54.5828C59.1304 53.4143 58.607 51.9477 58.0239 50.3336C55.0694 43.5056 51.3562 35.3407 59.5309 30.888C63.8659 28.66 67.8707 26.1863 71.6542 23.495C73.5477 22.1477 75.385 20.7477 77.1801 19.295C87.7682 10.1091 101.518 -3.24881 115.956 6.38277" stroke="#8E8BDE" stroke-width="0.84375" stroke-linecap="round" stroke-linejoin="round"/>
<path d="M9.81445 124.235C25.7212 117.723 43.1842 109.93 59.2174 101.916C60.3732 100.666 61.3568 99.1367 62.2069 97.4595C64.7468 92.4279 66.0747 86.0595 66.8792 82.0068C67.6977 77.891 68.1228 73.3753 67.083 69.0595C65.885 64.0875 61.8275 60.6489 60.5523 55.8489C60.0324 53.8981 59.0945 50.484 58.4656 47.0244C52.8414 35.7086 66.5876 30.884 74.3899 25.3191C76.3396 24.0209 78.0364 22.5823 79.5751 21.0665C87.7673 9.36122 103 -1.40019 117.122 6.84192" stroke="#8E8BDE" stroke-width="0.84375" stroke-linecap="round" stroke-linejoin="round"/>
<path d="M10.25 125.926C27.2071 117.726 48.7557 112.902 61.8556 99.3859C62.6249 97.8841 63.2854 96.2701 63.8685 94.6315C65.0278 91.3543 65.8709 87.9824 66.6192 85.207C68.0419 79.9263 68.9834 74.007 67.7363 68.4982C66.8194 64.4456 64.1531 61.4947 62.6917 57.7473C61.8451 55.5789 61.0019 52.3403 60.5839 49.0491C60.6471 45.7333 57.6752 42.021 60.6471 39.7964C64.7327 36.4561 68.7797 33.3227 72.6756 30.1052C74.6217 28.4982 76.5328 26.8701 78.3912 25.1824C83.6852 19.7543 89.2603 14.5613 94.4595 8.99292C100.403 1.94029 111.178 3.79643 118.674 7.40345" stroke="#8E8BDE" stroke-width="0.84375" stroke-linecap="round" stroke-linejoin="round"/>
<path d="M10.7188 127.516C29.067 123.663 46.53 113.27 60.9718 101.961C62.3278 99.6385 63.3853 96.9964 64.26 94.3859C65.1347 91.7753 65.8268 89.1929 66.4345 86.9964C69.2344 76.8385 69.2133 69.0525 64.5902 59.0631C63.5258 56.7648 62.6194 53.7262 62.2506 50.635C62.1346 47.5824 59.9039 44.242 62.507 42.3859C68.2191 38.2104 73.3059 33.9824 77.9395 29.4876C79.4852 27.9894 80.9782 26.4631 82.4326 24.9087C91.8579 12.3262 104.863 -2.51589 121.514 8.61043" stroke="#8E8BDE" stroke-width="0.84375" stroke-linecap="round" stroke-linejoin="round"/>
<path d="M11.2207 128.979C30.9215 128.116 49.4981 114.758 61.9621 100.477C62.7912 98.6524 63.4938 96.7401 64.1226 94.8805C64.7514 93.0208 65.3029 91.2208 65.8193 89.6173C68.9353 79.9647 70.2141 70.477 66.3041 60.7963C65.3837 58.5226 64.4704 56.2559 63.8767 54.0138C63.2443 50.5542 61.0171 46.1015 63.9891 43.8735C68.8651 40.1156 73.6884 36.5682 78.1674 32.7787C79.6605 31.5156 81.1148 30.2244 82.52 28.891C88.882 23.4629 92.5987 16.0419 98.5427 10.1051C105.604 3.05242 116.006 5.28049 124.338 9.8454" stroke="#8E8BDE" stroke-width="0.84375" stroke-linecap="round" stroke-linejoin="round"/>
<path d="M11.7363 130.305C31.2931 130.712 48.7525 115.87 61.1077 101.607C61.9683 99.9965 62.7061 98.3193 63.356 96.6772C64.0059 95.0351 64.575 93.4245 65.0949 91.9438C68.3163 82.7544 70.7192 72.3333 67.6137 62.3894C67.0095 60.4526 66.3561 58.7368 65.8045 57.1403C65.6956 56.821 65.5902 56.5052 65.4883 56.1965C64.3607 52.7824 62.8712 47.9579 65.8467 45.7298C70.8632 41.414 75.669 37.2596 80.2077 32.9263C81.7218 31.4807 83.2043 30.0175 84.6551 28.5263C95.1976 16.0421 110.43 -2.51231 127.043 11.9684" stroke="#8E8BDE" stroke-width="0.84375" stroke-linecap="round" stroke-linejoin="round"/>
<path d="M12.2539 131.502C19.6733 132.042 26.6606 130.133 33.1104 126.79C35.2604 125.674 37.3506 124.4 39.3811 123.004C41.4116 121.607 43.3718 120.088 45.2688 118.484C50.9599 113.674 56.0431 108.102 60.4168 102.776C61.3056 101.169 62.0679 99.4984 62.7529 97.8528C63.4379 96.2072 64.0457 94.5826 64.6183 93.0739C68.0224 84.1125 70.6009 73.4563 68.3877 63.6247C68.1769 62.6949 67.8994 61.723 67.5938 60.73C67.4919 60.3967 67.3865 60.0633 67.2811 59.7265C67.0142 58.4563 66.5118 56.9686 66.0235 55.4107C65.1031 52.4142 63.6171 49.0738 65.472 46.8458C69.684 41.8984 75.7088 39.5896 81.1328 36.2914C82.4888 35.4668 83.8062 34.5791 85.0462 33.5756C86.6482 32.0037 88.1342 30.5195 89.6201 29.0353C95.1917 21.6142 98.9084 12.7054 107.824 8.99665C113.677 6.49139 119.737 7.32648 124.904 10.2703C126.626 11.2528 128.252 12.4668 129.735 13.8703" stroke="#8E8BDE" stroke-width="0.84375" stroke-linecap="round" stroke-linejoin="round"/>
<path d="M12.7656 132.576C15.2669 133.084 17.733 133.211 20.1604 133.014C22.5844 132.818 24.9662 132.295 27.2918 131.509C32.0343 129.972 36.4923 127.376 40.5533 124.067C42.6329 122.449 44.6424 120.681 46.5675 118.825C52.3498 113.256 57.405 106.87 61.48 101.249C62.2599 99.4108 62.9379 97.5511 63.5422 95.8108C64.1429 94.0704 64.6698 92.4529 65.1265 91.095C68.0563 82.4389 70.3292 72.9827 68.7203 63.5652C68.6114 62.9231 68.4709 62.2599 68.3128 61.5827C68.2355 61.2424 68.1512 60.8985 68.0598 60.5476C67.6945 58.1511 66.3982 54.8178 66.0996 51.8494C65.8467 49.8178 66.219 47.2213 68.0774 46.4775C74.7661 44.2494 80.3026 41.0318 84.9081 36.9617C86.4432 35.6038 87.873 34.1511 89.2079 32.6143C94.084 26.8108 97.0559 19.7582 101.886 13.4494C107.77 5.40729 119.585 6.90202 127.851 12.0529C129.505 13.0845 131.016 14.2599 132.323 15.5336" stroke="#8E8BDE" stroke-width="0.84375" stroke-linecap="round" stroke-linejoin="round"/>
<path d="M13.2832 133.551C15.7669 134.032 18.2119 134.151 20.6113 133.961C23.0106 133.772 25.3608 133.274 27.6513 132.523C32.4078 130.716 36.4934 128.488 40.6352 125.354C42.6587 123.786 44.6014 122.067 46.4562 120.249C52.0243 114.811 56.7984 108.495 60.5116 102.733C61.3161 100.954 62.0152 99.1579 62.63 97.4877C63.2447 95.8175 63.7822 94.2667 64.2494 92.986C67.4392 84.2246 69.9018 74.7824 69.1746 65.1368C69.1009 64.1754 68.9568 63.1439 68.7917 62.0807C68.7355 61.7263 68.6793 61.3649 68.6161 60.993C68.7179 58.7439 67.657 55.6737 67.4252 52.9754C67.3373 51.6737 66.965 49.8175 68.0786 49.4491C73.3726 46.386 79.032 43.6386 84.1399 40.4C85.8402 39.3193 87.4807 38.186 89.0264 36.9684C97.8054 32.0035 97.8054 20.8702 104.122 14.5649C109.57 8.62806 117.664 7.96841 124.901 10.6667C126.71 11.3403 128.467 12.2246 130.118 13.2912C131.769 14.3544 133.332 15.5965 134.779 16.9824" stroke="#8E8BDE" stroke-width="0.84375" stroke-linecap="round" stroke-linejoin="round"/>
<path d="M13.8164 134.498C16.3739 134.768 18.8997 134.684 21.3798 134.298C23.8635 133.916 26.298 133.228 28.6763 132.291C33.893 130.712 37.9786 127.372 42.0958 124.045C44.172 122.298 46.1568 120.403 48.0328 118.407C53.6676 112.424 58.3433 105.544 61.6455 99.126C62.2814 97.5085 62.8364 95.9962 63.3318 94.7155C66.7218 85.9401 69.36 76.4418 69.3671 66.7295C69.3671 66.0839 69.339 65.4032 69.2968 64.6945C69.2757 64.3401 69.2511 63.9822 69.223 63.6173C69.3917 61.1681 68.4537 57.8103 68.3975 54.8594C68.4467 53.526 68.0743 52.0418 69.1879 50.9296C75.1318 46.2278 82.2316 44.6629 88.5093 41.5015C90.0796 40.712 91.5936 39.8208 93.0305 38.7576C100.401 34.2313 100.77 25.3225 104.859 18.2734C109.317 10.1085 118.233 9.20324 126.168 11.9366C128.153 12.6208 130.075 13.5331 131.863 14.6138C133.654 15.6945 135.358 16.9366 136.89 18.2839" stroke="#8E8BDE" stroke-width="0.84375" stroke-linecap="round" stroke-linejoin="round"/>
<path d="M14.3711 135.481C16.8126 135.583 19.1909 135.369 21.5059 134.885C23.821 134.404 26.0728 133.657 28.2579 132.692C33.1479 131.085 36.4923 127.744 40.5673 124.618C42.4819 122.955 44.3227 121.165 46.0932 119.299C51.4049 113.699 56.0596 107.386 59.9976 101.628C61.0093 99.5898 61.8946 97.5021 62.7412 95.4319C66.2437 86.8811 68.903 77.3653 69.5178 67.7863C69.5599 67.1197 69.581 66.4214 69.5915 65.7021C69.5986 65.3407 69.6021 64.9758 69.6021 64.6074C69.7637 62.2214 69.1981 59.1723 69.3843 56.4705C69.5564 55.0109 69.9288 53.1547 70.6735 52.7828C76.8037 49.7197 83.1446 46.8179 88.8286 43.2846C90.7256 42.1091 92.5453 40.86 94.2667 39.5161C102.255 34.2284 104.855 24.9512 109.685 17.1583C113.029 12.1477 118.232 10.9407 123.572 11.8776C125.353 12.1898 127.148 12.7407 128.894 13.467C132.351 14.9302 135.695 16.7863 138.695 19.3898" stroke="#8E8BDE" stroke-width="0.84375" stroke-linecap="round" stroke-linejoin="round"/>
<path d="M14.9434 136.491C17.543 136.094 20.0934 135.473 22.5771 134.656C25.0642 133.838 27.4847 132.824 29.8349 131.638C34.6371 129.6 38.7227 126.263 42.9523 122.635C44.9617 120.852 46.8763 118.95 48.682 116.95C54.1025 110.954 58.5675 104.077 61.7818 97.0031C62.4001 95.568 62.9938 94.1083 63.5559 92.6276C66.3733 85.2206 68.46 77.2838 69.4963 69.2627C69.6544 68.0276 69.7633 66.6838 69.8898 65.2978C69.9214 64.9505 69.953 64.6031 69.9882 64.2522C70.3324 62.2276 70.0408 59.8241 70.2903 57.7119C70.3043 56.1224 70.6732 54.6382 71.7903 54.2698C78.7565 51.3329 85.9827 48.4592 92.2534 44.6031C93.8202 43.6382 95.3307 42.6136 96.7605 41.5119C103.741 36.4592 107.458 28.2943 110.802 20.5013C113.215 14.7505 118.513 12.7996 124.165 13.2627C126.052 13.4171 127.977 13.8382 129.849 14.4733C133.464 15.6768 137.181 17.5329 140.279 20.3855" stroke="#8E8BDE" stroke-width="0.84375" stroke-linecap="round" stroke-linejoin="round"/>
<path d="M15.5234 137.512C18.0528 137.171 20.4978 136.585 22.8585 135.785C25.2192 134.989 27.4957 133.978 29.6878 132.796C33.8928 130.34 38.3507 127.371 41.8391 123.834C43.6975 122.08 45.468 120.22 47.1578 118.291C52.2235 112.508 56.5374 106.098 60.089 100.013C60.5879 98.9608 61.0656 97.8906 61.5399 96.8064C65.1864 88.4555 67.9019 79.245 69.5986 70.0029C69.827 68.7678 70.0202 67.452 70.238 66.1152C70.2942 65.7818 70.3504 65.445 70.4101 65.1081C71.0987 63.3959 70.7931 61.059 70.9617 59.052C71.4184 55.0064 76.2487 53.1502 79.2207 52.4099C84.7923 50.9257 90.8311 49.8134 95.9389 47.4941C97.6427 46.7222 99.2411 45.8134 100.688 44.7117C102.473 43.4836 103.787 41.9783 104.802 40.3152C107.082 36.8239 107.082 33.1117 108.424 29.9327C108.916 28.1853 109.464 26.4731 110.237 24.8766C111.01 23.2801 112.007 21.7959 113.402 20.4976C115.879 17.7748 118.935 16.2099 122.191 15.5888C123.821 15.2801 125.501 15.2064 127.183 15.3432C132.351 16.045 137.922 17.5292 141.966 21.438" stroke="#8E8BDE" stroke-width="0.84375" stroke-linecap="round" stroke-linejoin="round"/>
<path d="M15.9941 138.375C18.4638 137.649 20.8737 136.764 23.2203 135.736C25.5635 134.712 27.8434 133.54 30.0496 132.245C34.634 129.599 38.7231 126.631 42.3766 123.042C44.2701 121.291 46.0757 119.445 47.7936 117.515C52.9401 111.733 57.2646 105.214 60.5843 98.3784C61.2237 96.9784 61.8349 95.5539 62.4216 94.1118C65.3549 86.8907 67.6524 79.1749 69.4967 71.4767C69.8726 69.9118 70.2169 68.2135 70.6349 66.5118C70.7193 66.1714 70.8036 65.8311 70.8914 65.4837C71.1549 63.403 71.2884 61.2486 71.9523 59.4907C73.2767 56.4977 76.2487 54.6416 78.8518 54.6416C86.2361 54.9188 92.4189 53.3188 97.46 50.2135C99.1392 49.1784 100.695 47.9749 102.132 46.61C103.411 45.403 104.528 44.0942 105.519 42.7153C111.178 34.603 111.178 22.3574 121.211 17.9047C129.014 14.5644 137.188 19.017 143.863 22.6205" stroke="#8E8BDE" stroke-width="0.84375" stroke-linecap="round" stroke-linejoin="round"/>
<path d="M16.4375 139.186C18.8052 138.312 21.1343 137.312 23.4108 136.189C25.6872 135.07 27.9144 133.831 30.0784 132.484C34.6382 129.972 38.3549 126.259 42.2684 123.137C44.1514 121.382 45.957 119.537 47.6714 117.61C52.8108 111.835 57.1388 105.323 60.3883 98.3295C61.3298 96.2909 62.2151 94.2032 63.0512 92.0804C65.5559 85.7085 67.6321 79.0208 69.5923 72.3857C69.9506 71.1681 70.309 69.8734 70.7024 68.5611C70.8008 68.2348 70.9026 67.905 71.0045 67.5751C71.5842 65.7436 71.7809 63.4383 72.5046 61.4804C73.2282 59.5225 74.4753 57.9155 77.1593 57.4804C82.5657 53.8945 89.2544 56.4909 95.2581 55.733C97.0638 55.526 98.62 55.0313 99.9795 54.3085C102.035 52.9997 103.647 51.3892 104.964 49.5857C110.434 42.3892 109.693 33.112 115.264 25.6909C122.694 16.4137 136.444 17.526 145.002 23.9611" stroke="#8E8BDE" stroke-width="0.84375" stroke-linecap="round" stroke-linejoin="round"/>
<path d="M16.8809 139.996C19.1467 138.929 21.381 137.775 23.5696 136.537C25.7581 135.301 27.9046 133.979 29.9983 132.579C34.2701 129.6 37.9833 126.631 41.8405 123.21C43.6813 121.494 45.4519 119.701 47.1381 117.838C52.1968 112.252 56.5177 106.017 59.8305 99.2137C60.793 97.1997 61.6959 95.133 62.5566 93.0348C65.1351 86.74 67.3377 80.147 69.6001 73.6698C70.0146 72.4874 70.4362 71.2172 70.9034 69.926C71.0193 69.6032 71.1387 69.2804 71.2617 68.9576C72.0837 66.8067 72.3999 64.526 73.2009 62.7084C74.0018 60.8874 75.2805 59.5295 78.0277 59.2277C81.077 57.2383 84.7937 57.9821 88.1942 58.347C90.6639 58.7611 93.151 59.2804 95.6839 59.1751C97.5352 59.0979 99.1617 58.4137 100.57 57.5962C103.37 56.4944 105.601 54.2663 107.101 51.2979C108.945 47.2172 110.804 42.7646 111.917 38.312C114.148 31.2593 117.861 24.5821 125.291 21.9821C132.352 19.3856 139.782 21.9821 145.912 25.5049" stroke="#8E8BDE" stroke-width="0.84375" stroke-linecap="round" stroke-linejoin="round"/>
<path d="M17.334 140.814C19.4488 139.691 21.5566 138.505 23.6398 137.256C25.723 136.007 27.7816 134.698 29.805 133.319C33.5218 130.344 37.6074 127.376 41.3592 124.235C43.1684 122.583 44.9108 120.86 46.5725 119.07C51.5539 113.702 55.7975 107.695 58.9065 101.004C59.588 99.6528 60.2344 98.2774 60.8597 96.8879C63.9828 89.937 66.5999 82.537 69.4595 75.3721C70.0321 73.9405 70.6504 72.3195 71.36 70.6879C71.504 70.3616 71.6481 70.0353 71.7991 69.7054C73.2781 66.144 73.647 60.9475 78.7513 61.0844C79.0394 60.944 79.3309 60.8212 79.6366 60.7124C80.2443 60.4984 80.8837 60.3546 81.5652 60.2914C86.3639 59.8458 91.2715 62.6072 96.281 62.5861C98.2026 62.5791 99.8713 62.0703 101.315 61.3019C103.458 60.5686 104.993 58.9932 106.233 57.1405C110.062 50.5581 112.29 43.5054 114.893 36.4563C120.095 23.8388 135.7 19.0142 146.699 27.2844" stroke="#8E8BDE" stroke-width="0.84375" stroke-linecap="round" stroke-linejoin="round"/>
<path d="M17.7969 141.638C19.9468 140.228 22.1143 138.789 24.2748 137.315C30.549 132.94 36.8653 128.119 42.8971 122.768C44.8081 120.975 46.6419 119.119 48.3773 117.182C53.5835 111.375 57.9045 104.866 60.7219 97.375C61.5018 95.6873 62.2571 93.9715 62.9948 92.2452C65.2115 87.0627 67.3052 81.7539 69.6203 76.6171C70.2842 75.1469 71.029 73.4276 71.9002 71.7048C71.988 71.5329 72.0758 71.361 72.1637 71.189C74.015 67.6276 74.3874 62.0627 79.9484 62.996C80.2751 62.8943 80.6124 62.8136 80.9602 62.7574C81.3079 62.7013 81.6627 62.6697 82.0281 62.6627C86.9006 62.575 91.4148 65.8206 96.3962 66.2697C98.3248 66.4452 100 66.1083 101.455 65.4592C103.373 64.6592 104.859 63.5469 106.345 61.6908C111.548 54.2697 113.402 45.7329 117.119 37.568C122.322 26.4346 137.554 21.982 147.731 29.4031" stroke="#8E8BDE" stroke-width="0.84375" stroke-linecap="round" stroke-linejoin="round"/>
<path d="M18.2754 142.481C20.2286 140.916 22.2205 139.365 24.2299 137.804C30.1809 133.309 36.4972 128.484 42.0723 123.179C43.9552 121.439 45.7785 119.646 47.5209 117.783C52.7482 112.2 57.2308 105.993 60.3081 98.7335C61.1091 97.0598 61.889 95.3651 62.6583 93.6563C64.9663 88.5335 67.176 83.2984 69.6456 78.2598C70.3061 76.9089 71.0965 75.2563 72.0274 73.5861C72.2136 73.2528 72.4068 72.916 72.6035 72.5826C74.7675 69.1054 75.1399 63.537 80.4023 65.2809C80.7431 65.2247 81.0768 65.1721 81.4176 65.144C81.7583 65.116 82.1061 65.1195 82.4645 65.144C87.4669 65.5475 91.7141 69.1861 96.7306 69.944C98.6979 70.2423 100.391 70.0107 101.867 69.4142C103.339 68.8177 104.593 67.8563 105.682 66.6914C111.552 58.7124 114.896 49.8072 117.868 40.53C119.727 35.7054 123.812 32.3651 128.27 30.1405C134.959 27.544 142.016 27.544 148.705 30.5124C148.705 30.5124 148.705 31.2563 149.172 31.9089" stroke="#8E8BDE" stroke-width="0.84375" stroke-linecap="round" stroke-linejoin="round"/>
<path d="M18.7949 143.376C26.4637 137.393 34.6384 131.457 42.0403 124.836C43.8846 123.169 45.6657 121.45 47.3624 119.657C52.4527 114.285 56.7631 108.239 59.5595 100.99C60.4061 99.3058 61.2281 97.604 62.0396 95.8882C64.4741 90.7408 66.8348 85.4952 69.5047 80.4847C70.4567 78.6987 71.6301 76.4286 73.0423 74.2987C73.1512 74.1338 73.2636 73.9689 73.376 73.8075C74.7566 70.9689 76.2426 66.1444 80.8165 67.818C81.1572 67.7759 81.498 67.7444 81.8388 67.7373C82.183 67.7338 82.5308 67.7549 82.8891 67.8075C85.4852 68.19 88.1726 69.6286 90.7687 71.1022C93.3648 72.5759 95.7853 73.9408 98.1003 74.3233C99.7865 74.604 101.276 74.3689 102.629 73.7058C103.981 73.0426 105.197 71.9479 106.331 70.5058C107.821 68.3654 109.31 66.1408 110.434 63.9093C114.878 54.6356 117.109 44.6145 124.167 36.8215C130.483 29.4005 143.488 27.9163 151.072 34.8987" stroke="#8E8BDE" stroke-width="0.84375" stroke-linecap="round" stroke-linejoin="round"/>
<path d="M19.3887 144.355C19.7751 142.958 20.5199 141.846 21.2611 141.106C29.0634 135.169 37.2381 129.232 44.7629 122.548C46.551 120.87 48.2653 119.137 49.8778 117.327C54.7186 111.895 58.6567 105.751 61.035 98.3406C61.6673 96.9126 62.3418 95.3792 63.062 93.7968C65.9426 87.467 69.5118 80.3196 73.4674 75.6143C73.7063 75.3301 73.9487 75.0564 74.1875 74.7828C75.8773 72.081 78.108 69.1126 81.7053 70.4108C81.9688 70.4108 82.2287 70.4284 82.4887 70.4564C82.7487 70.4845 83.0121 70.5336 83.2721 70.5968C85.8014 71.2213 88.1446 72.7968 90.5123 74.2213C92.8801 75.6459 95.2513 76.8985 97.9634 76.8108C99.776 76.7512 101.36 76.4143 102.783 75.8213C104.206 75.2249 105.467 74.3687 106.623 73.267C107.821 71.9161 108.864 70.488 109.788 69.0038C117.116 57.6073 118.23 40.9091 131.976 35.3406C138.665 32.7442 147.953 31.6284 153.142 38.0038" stroke="#8E8BDE" stroke-width="0.84375" stroke-linecap="round" stroke-linejoin="round"/>
<path d="M20.0723 145.453C27.2036 135.541 39.0915 129.972 47.1749 121.025C48.7311 119.481 50.2241 117.888 51.6293 116.228C55.8519 111.26 59.3016 105.712 61.3989 99.1756C62.2771 97.2879 63.2432 95.2563 64.276 93.1896C67.3745 86.9931 71.1052 80.5019 75.089 76.6774C75.3419 76.4352 75.5983 76.2002 75.8548 75.9721C77.7342 74.3054 79.5891 72.8212 82.1009 73.2914C82.3643 73.3054 82.6278 73.3335 82.8913 73.3826C83.1547 73.4317 83.4182 73.4984 83.6817 73.5826C86.6818 74.5581 88.8774 76.1967 91.1854 77.4317C93.4934 78.6668 95.8296 79.4774 99.3601 78.8352C101.092 78.5195 102.648 78.0247 104.057 77.3651C105.466 76.7054 106.734 75.8809 107.883 74.9019C110.057 72.8177 112.288 70.5931 113.437 67.6177C117.863 56.8598 121.207 43.8738 132.723 38.6774C139.412 35.7089 150.186 33.1124 154.953 40.8037" stroke="#8E8BDE" stroke-width="0.84375" stroke-linecap="round" stroke-linejoin="round"/>
<path d="M20.8809 146.712C29.435 137.024 40.2092 129.972 48.9671 120.736C50.7165 118.912 52.3747 117.021 53.9098 115.028C56.9732 111.042 59.5271 106.652 61.259 101.6C62.1934 99.6944 63.2122 97.6453 64.3082 95.5611C69.7779 85.1505 77.1236 73.9751 84.132 76.7716C90.8769 79.4628 93.1041 82.2172 100.847 80.2418C104.173 79.3926 106.893 78.1575 109.106 76.4032C110.504 75.0663 111.681 73.5786 112.706 71.9856C118.236 62.8067 120.094 51.6733 128.641 44.2488C136.071 38.3119 149.449 34.5997 156.482 43.3119" stroke="#8E8BDE" stroke-width="0.84375" stroke-linecap="round" stroke-linejoin="round"/>
<path d="M21.2363 147.351C32.0352 139.618 42.0683 131.085 50.6926 120.997C52.1048 119.327 53.4644 117.618 54.7571 115.856C58.6355 110.583 61.9306 104.867 64.3897 98.5617C65.3593 96.8319 66.378 95.0845 67.4319 93.3898C72.7119 84.9126 78.9299 77.7126 84.4804 80.2144C87.6983 81.6635 90.7265 82.1968 93.8425 82.2284C96.7934 82.3758 100.159 81.7898 103.717 81.2389C107.16 80.7056 109.531 79.4354 111.341 77.5653C112.366 76.3442 113.252 75.0565 114.042 73.7196C119.35 64.2916 121.209 52.7863 130.869 46.1091C137.372 41.7793 147.486 38.4811 154.255 42.4144C155.608 43.2003 156.83 44.2775 157.859 45.6916" stroke="#8E8BDE" stroke-width="0.84375" stroke-linecap="round" stroke-linejoin="round"/>
<path d="M21.5234 147.555C36.1234 140.365 47.6389 128.116 56.5724 115.151C58.0794 112.937 59.5092 110.677 60.8652 108.376C62.2212 106.074 63.5 103.734 64.7049 101.365C65.6885 99.7089 66.7214 98.0353 67.7858 96.4142C73.0974 88.3054 79.2205 81.4458 84.3284 83.7896C86.7277 84.8914 90.2969 84.6633 93.9645 84.0809C97.4564 83.8037 101.577 82.7335 104.198 82.2493C107.813 81.8458 110.128 80.6142 111.856 78.7195C117.863 68.3651 120.094 55.7475 131.241 49.0703C138.052 45.0493 147.959 41.0282 155.175 44.7124C156.618 45.4493 157.957 46.4949 159.162 47.916" stroke="#8E8BDE" stroke-width="0.84375" stroke-linecap="round" stroke-linejoin="round"/>
<path d="M21.8438 147.782C36.124 140.733 48.3843 130.344 57.4372 117.295C58.9794 115.182 60.4373 113.01 61.8038 110.786C63.1704 108.561 64.4456 106.284 65.6259 103.961C66.9714 101.895 68.3942 99.8104 69.8802 97.849C74.3241 91.9613 79.309 87.1788 84.0726 87.442C87.0059 87.6034 90.4451 86.7788 93.9932 85.842C97.3622 85.3297 101.374 84.1613 104.567 83.5473C108.035 83.2385 110.452 82.0981 112.254 80.2771C113.438 78.4771 114.453 76.5437 115.394 74.5508C118.977 66.8806 121.581 57.9753 129.383 53.1508C133.655 50.3683 139.507 47.3051 145.233 46.0701C147.141 45.6595 149.038 45.449 150.854 45.5192C154.645 45.7262 157.989 47.2104 160.438 49.9578" stroke="#8E8BDE" stroke-width="0.84375" stroke-linecap="round" stroke-linejoin="round"/>
<path d="M22.1738 148.038C35.0067 143.702 45.4122 134.424 53.5131 124.158C54.9569 122.417 56.3516 120.666 57.7076 118.887C61.7756 113.586 65.5099 108.059 69.0264 102.645C70.3789 100.831 71.7876 99.091 73.3227 97.4805C76.3931 94.2594 79.9658 91.5541 84.5467 89.8033C87.8945 88.5261 91.2635 87.5085 94.6816 86.7261C97.9487 86.6138 101.743 85.7541 105.119 85.0313C109.06 84.6348 111.488 83.5787 113.213 81.7331C114.467 79.9682 115.457 78.091 116.329 76.1506C118.837 66.7576 124.465 58.6769 132.337 53.6734C134.304 52.4243 136.416 51.3647 138.654 50.5261C145.729 49.0699 156.506 44.2454 161.867 51.9927" stroke="#8E8BDE" stroke-width="0.84375" stroke-linecap="round" stroke-linejoin="round"/>
<path d="M22.4961 148.291C36.1229 142.218 48.0143 131.828 57.387 120.453C59.0416 118.547 60.647 116.611 62.1997 114.642C63.756 112.677 65.2595 110.684 66.7174 108.67C68.0664 106.944 69.3943 105.246 70.7573 103.603C74.8183 98.6702 79.2131 94.2281 85.0657 91.3614C88.3925 89.7333 91.7474 88.6702 95.2252 87.9614C98.6995 87.2526 102.42 87.1649 106.108 86.6912C110.18 86.4667 112.713 85.5088 114.459 83.6772C116.205 81.8421 117.178 79.1263 118.179 75.3474C119.064 72.0316 120.48 68.9544 122.321 66.2035C123.241 64.8281 124.263 63.5333 125.381 62.3298C134.953 54.2667 152.048 43.8772 163.409 53.8842" stroke="#8E8BDE" stroke-width="0.84375" stroke-linecap="round" stroke-linejoin="round"/>
<path d="M22.8633 148.614C36.1248 140.361 48.7574 130.712 59.6757 119.13C61.4849 117.235 63.2309 115.274 64.8995 113.246C66.5647 111.214 68.1561 109.112 69.6526 106.926C70.8329 105.554 72.0133 104.2 73.2253 102.888C76.8542 98.9474 80.7536 95.3614 85.4891 92.6667C88.7878 90.7895 92.2726 89.7017 95.8734 89.1298C99.4707 88.5614 103.226 88.6 106.939 88.7263C111.162 88.9649 113.895 88.2386 115.764 86.4631C116.885 85.3965 117.696 83.9544 118.335 82.1123C118.778 80.2526 119.224 78.3719 119.751 76.5228C123.074 62.4245 137.565 54.6316 151.312 52.0351C156.142 50.9228 161.714 51.6631 165.223 55.6842" stroke="#8E8BDE" stroke-width="0.84375" stroke-linecap="round" stroke-linejoin="round"/>
<path d="M22.9336 148.523C37.2384 141.477 49.4987 130.716 60.4065 119.007C62.2227 117.08 63.9932 115.119 65.7181 113.137C67.443 111.154 69.1257 109.147 70.7592 107.13C71.9185 105.831 73.0813 104.547 74.2617 103.302C77.8027 99.5647 81.5195 96.1857 85.8404 93.8559C92.7961 90.1015 100.683 89.8559 108.921 91.7927C112.163 92.5542 114.499 91.9612 116.221 90.5682C117.942 89.1787 119.052 86.9928 119.835 84.5752C121.578 77.6454 122.323 69.8524 128.267 65.3998C139.413 56.8629 153.904 49.4419 166.941 57.0489" stroke="#8E8BDE" stroke-width="0.84375" stroke-linecap="round" stroke-linejoin="round"/>
<path d="M22.9863 148.411C36.4972 142.221 48.0128 132.2 58.5903 121.355C60.3573 119.583 62.1033 117.793 63.8247 115.986C65.546 114.186 67.2498 112.365 68.936 110.541C70.3272 109.056 71.6937 107.555 73.0673 106.081C77.1704 101.656 81.393 97.4669 86.2866 95.0318C93.6428 91.3687 101.262 92.6669 109.68 94.8003C114.306 95.9722 117.289 94.4073 119.287 91.6389C119.488 91.3617 119.677 91.0739 119.86 90.7757C120.468 89.1547 121.585 87.6704 121.585 86.1862C123.816 64.2915 149.081 52.7862 168.402 57.9792" stroke="#8E8BDE" stroke-width="0.84375" stroke-linecap="round" stroke-linejoin="round"/>
<path d="M23.0391 148.298C37.2385 141.473 48.3852 131.084 59.8164 120.635C61.6958 118.901 63.5612 117.161 65.4161 115.421C67.2744 113.684 69.1223 111.947 70.9701 110.221C72.2558 108.891 73.5205 107.519 74.7922 106.171C78.6003 102.126 82.4786 98.2767 87.0946 96.3433C90.8957 94.7538 94.7529 94.796 98.705 95.6275C102.657 96.4556 106.518 97.1889 110.512 97.8626C113.147 98.3047 115.293 98.0626 117.064 97.2626C118.834 96.4626 120.233 95.1082 121.364 93.3293C124.922 69.8556 147.216 57.2381 169.716 58.796" stroke="#8E8BDE" stroke-width="0.84375" stroke-linecap="round" stroke-linejoin="round"/>
<path d="M23.1055 148.214C37.607 142.221 48.7537 130.716 60.9578 120.951C62.9321 119.245 64.9028 117.544 66.8771 115.852C68.8514 114.165 70.8257 112.491 72.8105 110.842C74.0893 109.656 75.2942 108.424 76.4886 107.203C80.0648 103.533 83.5321 99.9332 88.3871 97.8595C96.0418 94.5858 104.599 99.6104 112.532 101.091C115.374 101.621 117.611 101.193 119.407 100.133C121.202 99.0735 122.554 97.3858 123.622 95.3893C126.784 71.7086 150.191 63.5437 170.598 59.9297" stroke="#8E8BDE" stroke-width="0.84375" stroke-linecap="round" stroke-linejoin="round"/>
<path d="M23.2109 148.168C39.8414 141.845 52.474 129.228 65.8795 118.203C67.5693 116.835 69.2625 115.481 70.9663 114.154C72.6701 112.824 74.3879 111.523 76.1198 110.256C77.6515 108.817 79.1445 107.309 80.6446 105.888C83.6446 103.045 86.6693 100.565 90.0382 99.7262C96.5197 98.1086 105.808 102.495 113.452 103.975C116.754 104.617 119.319 103.975 121.356 102.537C123.394 101.098 124.905 98.8665 126.116 96.3262C129.756 74.3051 152.418 69.8525 170.254 63.1718C170.998 62.7999 171.739 61.6876 170.886 60.5332" stroke="#8E8BDE" stroke-width="0.84375" stroke-linecap="round" stroke-linejoin="round"/>
<path d="M23.3613 148.189C40.9543 142.958 53.2146 129.228 67.4281 118.881C69.2197 117.596 71.0394 116.358 72.8943 115.179C74.7491 114 76.6426 112.888 78.5853 111.856C80.0572 110.596 81.4729 109.228 82.8887 107.933C85.7201 105.347 88.5446 103.067 91.8011 102.586C95.0155 102.133 98.9465 102.975 102.941 104.049C106.931 105.123 110.992 106.407 114.477 106.768C118.18 107.151 120.976 106.481 123.228 104.828C124.549 103.993 125.663 102.877 126.407 101.765C131.61 92.1157 135.323 81.7262 146.098 76.5297C154.272 72.449 170.991 72.0771 170.924 60.6279" stroke="#8E8BDE" stroke-width="0.84375" stroke-linecap="round" stroke-linejoin="round"/>
<path d="M23.5762 148.291C40.5825 146.67 50.612 129.6 65.226 122.087C66.8911 121.105 68.602 120.196 70.369 119.375C72.136 118.558 73.9663 117.828 75.8668 117.207C77.5881 116.754 79.4254 116.361 81.08 115.772C82.7347 115.182 84.2136 114.389 85.2043 113.14C87.2032 110.621 90.1119 106.358 93.6389 105.947C97.043 107.27 101.22 108.487 104.894 107.168C108.72 108.077 112.493 109.172 115.834 109.498C119.48 109.852 122.259 109.203 124.546 107.61C125.688 106.814 126.707 105.786 127.652 104.53C134.21 86.9225 149.815 79.8699 165.792 72.4488C169.509 70.5927 172.481 65.7681 171.019 60.8418" stroke="#8E8BDE" stroke-width="0.84375" stroke-linecap="round" stroke-linejoin="round"/>
<path d="M23.877 148.495C40.2088 146.67 50.6107 132.196 64.4799 124.61C66.5982 123.41 68.7728 122.337 71.0421 121.421C73.308 120.512 75.6687 119.761 78.1524 119.203C79.8105 118.87 81.6724 118.684 83.3692 118.309C85.0659 117.933 86.5906 117.368 87.5707 116.274C89.6574 113.937 92.3308 109.751 95.7278 109.256C99.1073 108.765 102.891 109.761 106.527 110.116C110.215 110.895 113.862 111.881 117.073 112.221C120.817 112.614 123.638 111.923 125.985 110.267C127.158 109.438 128.216 108.372 129.213 107.081C133.099 100.656 136.816 94.7192 142.76 90.263C153.906 82.0981 172.11 77.6455 171.243 61.4385" stroke="#8E8BDE" stroke-width="0.84375" stroke-linecap="round" stroke-linejoin="round"/>
<path d="M24.2715 148.807C42.4406 147.782 53.5873 131.456 69.1919 124.042C70.8641 123.295 72.5362 122.642 74.2365 122.165C75.9368 121.688 77.6687 121.382 79.4603 121.33C80.9463 121.172 82.9768 121.116 84.916 120.842C86.8551 120.568 88.6994 120.074 89.8166 119.032C91.97 117.025 94.6328 112.87 97.9842 112.421C102.449 111.821 107.357 112.996 112.001 114.088C114.323 114.632 116.578 115.154 118.679 115.425C121.879 115.979 124.925 115.207 127.504 113.551C128.793 112.723 129.963 111.67 130.978 110.453C138.675 94.7158 156.51 90.2632 168.026 78.7579C170.625 76.1614 169.884 68.7368 171.518 63.3965" stroke="#8E8BDE" stroke-width="0.84375" stroke-linecap="round" stroke-linejoin="round"/>
<path d="M24.7383 149.221C31.2935 150.754 37.2374 147.042 42.8125 144.073C53.9592 137.765 62.5028 128.115 74.8614 124.68C76.8708 124.08 78.9365 123.628 81.0723 123.358C82.6321 123.287 84.7539 123.35 86.7915 123.189C88.829 123.028 90.7822 122.638 92.0117 121.659C94.3092 119.828 96.814 117.456 100.267 116.308C102.779 115.473 105.284 115.172 107.838 115.628C110.395 116.084 112.953 116.765 115.401 117.329C117.049 117.719 118.644 118.052 120.182 118.252C123.551 118.835 126.548 117.947 129.028 116.175C130.268 115.287 131.382 114.179 132.344 112.926C138.299 100.284 150.187 92.4908 163.192 87.6663C172.48 84.3259 168.763 75.7926 169.743 68.9014" stroke="#8E8BDE" stroke-width="0.84375" stroke-linecap="round" stroke-linejoin="round"/>
<path d="M25.2832 149.733C40.5822 151.495 51.7289 138.509 64.3615 131.456C68.0783 129.6 71.4226 127.376 75.452 126.235C77.609 125.625 79.8256 125.288 82.1337 125.333C83.9183 125.274 86.2263 125.484 88.4465 125.453C90.6632 125.421 92.792 125.151 94.2148 124.13C96.4877 123.674 99.3332 118.253 102.555 117.933C105.635 117.632 108.903 118.105 112.17 118.758C113.803 119.084 115.444 119.463 117.074 119.825C123.176 122.376 127.739 120.439 131.333 116.776C132.531 115.555 133.62 114.141 134.625 112.639C140.154 97.6809 154.645 93.2282 168.391 88.4037C173.594 86.5475 169.505 80.2388 169.052 75.8809" stroke="#8E8BDE" stroke-width="0.84375" stroke-linecap="round" stroke-linejoin="round"/>
<path d="M25.8984 150.34C32.408 151.122 39.0967 149.638 45.0406 146.298C56.1873 139.989 65.1032 129.968 77.5883 127.589C79.5767 127.242 81.6002 127.108 83.6061 127.217C85.4363 127.224 87.8287 127.558 90.1437 127.649C92.4588 127.74 94.693 127.593 96.2036 126.631C98.6802 125.052 101.585 122.947 104.705 120.47C106.114 120.322 107.568 120.372 109.051 120.526C110.533 120.684 112.044 120.947 113.561 121.238C120.106 124.396 125.874 123.087 130.487 119.547C132.025 118.368 133.431 116.937 134.699 115.344C140.154 99.1681 155.39 93.2313 171.736 89.1471C173.594 88.7751 172.108 85.0664 171.033 83.2383" stroke="#8E8BDE" stroke-width="0.84375" stroke-linecap="round" stroke-linejoin="round"/>
<path d="M26.6738 151.225C42.0677 154.835 53.5867 141.846 65.847 134.797C70.6773 132.2 75.8801 129.972 81.5149 129.218C83.5664 128.892 85.6215 129.092 87.6696 129.372C89.7177 129.653 91.7552 130.014 93.7681 130.007C95.1101 130.004 96.3818 130.797 97.657 132.292C99.1465 132.899 100.643 130.614 102.059 127.541C103.474 124.467 105.003 123.221 106.696 123.014C107.943 122.864 109.26 122.881 110.62 122.99C111.979 123.099 113.381 123.299 114.793 123.513C121.514 126.323 127.106 124.713 131.497 120.962C132.962 119.713 134.29 118.225 135.485 116.586C141.271 99.9162 157.992 91.7512 175.083 91.3828C174.711 91.0109 174.338 90.2705 174.282 89.9863" stroke="#8E8BDE" stroke-width="0.84375" stroke-linecap="round" stroke-linejoin="round"/>
<path d="M27.3809 152.046C38.7243 155.576 49.1262 147.042 58.7868 140.734C66.9615 135.909 75.1362 130.344 84.9128 131.12C86.5393 131.176 88.1729 131.337 89.831 131.583C92.7643 131.495 95.8979 134.418 99.3055 136.186C100.848 134.355 102.239 130.835 103.669 128.467C105.162 127.134 106.721 125.906 108.453 125.614C109.616 125.418 110.849 125.386 112.121 125.439C113.4 125.502 114.717 125.649 116.048 125.814C123.19 128.26 128.47 126.071 132.552 121.885C133.915 120.488 135.141 118.871 136.265 117.13C140.53 109.93 142.757 101.397 150.932 98.4249C157.993 95.8284 171.367 89.8881 175.822 95.0109" stroke="#8E8BDE" stroke-width="0.84375" stroke-linecap="round" stroke-linejoin="round"/>
<path d="M27.9922 152.765C40.9551 157.063 52.4741 145.558 63.2484 139.621C70.3095 135.54 77.7394 132.569 85.8193 133.161C87.4879 133.333 89.2339 133.761 90.9833 134.183C92.7328 134.607 94.4858 135.028 96.1755 135.193C99.5515 135.526 102.682 135.207 104.937 131.098C106.493 129.737 108.099 128.495 109.823 128.211C111.432 127.947 113.266 127.947 115.177 128.042C117.039 128.67 118.799 129.007 120.461 129.088C122.122 129.172 123.689 129.004 125.165 128.621C128.228 128.074 130.856 126.502 132.925 124.074C134.045 122.993 135.082 121.779 136.037 120.467C137.471 118.502 138.725 116.316 139.838 114.049C143.871 97.6773 160.962 95.4492 175.08 94.3369C176.194 94.3369 175.08 96.1931 175.323 97.1966" stroke="#8E8BDE" stroke-width="0.84375" stroke-linecap="round" stroke-linejoin="round"/>
<path d="M28.5215 153.382C37.9784 155.951 46.8979 152.239 54.7002 147.414C64.3608 141.105 74.0215 133.312 85.7443 134.979C87.4973 135.417 89.3065 136.077 91.1156 136.684C92.9248 137.291 94.7305 137.853 96.4835 138.091C99.9859 138.572 103.271 137.786 105.891 133.586C107.5 132.179 109.148 130.919 110.89 130.631C111.969 130.453 113.156 130.386 114.407 130.382C121.401 132.803 129.808 131.228 134.589 124.916C135.762 123.554 136.837 122.046 137.842 120.446C138.973 118.646 140.013 116.733 141.017 114.786C144.246 102.881 155.765 98.0561 167.28 97.6841C170.252 97.6841 173.224 96.9403 175.828 95.4561C175.455 96.5683 175.083 98.0525 174.675 99.0736" stroke="#8E8BDE" stroke-width="0.84375" stroke-linecap="round" stroke-linejoin="round"/>
<path d="M28.9961 153.92C34.6379 155.579 40.5819 155.207 45.7846 152.979C59.5309 146.299 73.2806 132.569 89.1558 139.253C90.6523 139.758 92.1313 140.263 93.5856 140.656C96.4944 141.439 99.3012 141.758 101.961 140.678C105.639 139.102 107.739 134.379 111.825 133.144C112.889 132.962 114.056 132.885 115.292 132.867C122.975 133.856 133.223 134.642 136.785 126.018C137.635 124.6 138.369 123.102 139.051 121.562C140.069 119.253 140.969 116.853 142.019 114.523C146.473 101.025 161.337 101.397 173.225 98.8003C173.969 98.4284 175.455 98.0565 175.455 96.5723C175.083 97.6845 174.711 98.8003 174.205 100.074" stroke="#8E8BDE" stroke-width="0.84375" stroke-linecap="round" stroke-linejoin="round"/>
<path d="M29.4219 154.393C33.525 155.947 37.983 155.947 42.0721 154.463C56.9355 149.639 71.423 134.797 87.7794 141.284C89.5851 142.123 91.3556 143.088 93.1367 143.972C94.9178 144.856 96.7059 145.66 98.5467 146.186C100.911 146.712 102.692 145.218 104.459 142.905C106.233 140.74 108.007 138.049 110.371 136.477C110.898 135.951 111.949 135.951 112.711 135.691C121.666 135.691 134.277 137.79 138.236 127.576C138.833 126.333 139.378 125.084 139.894 123.832C140.86 121.481 141.711 119.105 142.67 116.804C146.105 101.025 163.568 105.105 174.715 99.1685C175.087 98.7966 175.087 97.6843 175.46 96.9404C175.46 98.4246 174.346 99.1685 173.935 100.607" stroke="#8E8BDE" stroke-width="0.84375" stroke-linecap="round" stroke-linejoin="round"/>
<path d="M29.8086 154.817C35.0113 157.431 41.3276 155.947 46.5268 154.091C60.6455 149.266 76.9949 134.052 91.5842 147.144C93.3513 148.315 95.1253 149.466 96.9661 150.382C99.5938 151.694 101.793 150.933 103.795 147.628C105.833 145.2 107.737 141.986 109.838 140.151C110.888 139.365 112.005 138.772 113.21 138.393C125.6 140.677 139.786 137.003 142.024 123.073C142.603 121.547 143.155 120.007 143.755 118.498C146.84 104.365 162.072 106.589 172.477 101.396C173.222 101.024 174.336 99.9119 175.077 98.4277C174.332 99.1716 173.963 99.9119 173.777 100.887" stroke="#8E8BDE" stroke-width="0.84375" stroke-linecap="round" stroke-linejoin="round"/>
<path d="M30.1699 155.214C33.8937 156.322 37.9828 157.435 42.0684 156.322C60.2726 150.758 80.3387 131.087 94.3379 153.014C95.8977 154.47 97.612 155.203 99.2315 155.105C100.847 155.007 102.369 154.08 103.535 152.228C104.42 151.344 105.242 150.354 106.047 149.34C106.851 148.326 107.635 147.277 108.442 146.277C114.042 137.537 124.816 141.996 133.223 138.322C138.742 135.961 142.156 130.449 143.077 124.986C143.481 123.758 143.899 122.515 144.359 121.291C145.28 118.835 146.376 116.431 147.893 114.277C152.046 106.231 161.706 108.084 168.764 105.115C170.994 104.372 173.594 102.519 174.335 99.9189C173.963 100.291 173.963 100.663 173.664 101.112" stroke="#8E8BDE" stroke-width="0.84375" stroke-linecap="round" stroke-linejoin="round"/>
<path d="M30.5215 155.593C45.0406 162.632 57.3009 149.27 70.3059 144.818C80.339 141.105 85.5382 150.014 92.3042 155.376C94.2082 156.723 96.2 158.098 98.2235 158.347C100.247 158.6 102.299 157.726 104.322 154.586C105.636 153.274 106.865 151.846 108.102 150.432C113.519 141.726 123.766 141.99 133.223 139.891C139.266 138.053 142.944 132.807 144.201 127.004C144.774 125.505 145.364 123.962 146 122.439C146.636 120.916 147.321 119.411 148.108 117.993C149.446 115.87 150.932 113.274 153.163 111.79C160.224 107.709 171.367 109.933 173.97 100.656C173.97 101.028 173.598 101.028 173.594 101.246" stroke="#8E8BDE" stroke-width="0.84375" stroke-linecap="round" stroke-linejoin="round"/>
<path d="M30.8711 155.972C36.123 158.915 42.4393 158.547 47.6385 156.319C61.7572 150.754 84.7917 136.28 91.1081 159.659C91.4804 160.403 92.9664 161.515 94.5964 161.143C97.3506 161.933 99.5743 160.172 101.496 158.677C103.414 157.182 105.048 155.168 106.678 153.08C107.493 152.035 108.304 150.975 109.154 149.95C111.15 147.757 112.723 145.136 115.615 144.347C128.49 141.459 144.776 140.936 147.115 125.164C147.73 123.607 148.352 122.049 149.055 120.575C151.672 111.414 162.074 113.27 168.39 108.445C170.99 106.589 172.476 103.621 173.962 100.28C173.962 100.652 173.589 101.024 173.533 101.336" stroke="#8E8BDE" stroke-width="0.84375" stroke-linecap="round" stroke-linejoin="round"/>
<path d="M31.2402 156.369C45.7804 163 60.2715 149.639 75.1348 148.527C82.9372 147.783 87.3951 155.579 90.1247 161.436C91.4456 163.772 94.8637 164.029 97.2279 162.716C100.513 160.309 103.158 157.267 105.786 154.264C106.664 153.264 107.539 152.264 108.434 151.295C110.626 148.285 113.778 145.66 117.196 144.871C128.23 141.723 142.942 142.246 147.165 129.671C147.632 128.65 148.117 127.604 148.63 126.555C149.916 123.937 151.356 121.281 153.235 119.081C156.502 115.123 161.705 115.123 165.791 111.783C169.135 108.814 172.107 105.474 173.593 101.021C173.593 101.021 173.593 101.393 173.505 101.393" stroke="#8E8BDE" stroke-width="0.84375" stroke-linecap="round" stroke-linejoin="round"/>
<path d="M31.6445 156.796C41.6987 160.772 51.7282 154.835 61.7613 152.238C71.7943 149.642 86.6542 150.01 88.8849 163C88.8849 163.744 89.9985 164.112 90.6449 164.088C93.9893 164.905 96.6732 164.024 99.0866 162.407C101.5 160.786 103.604 157.326 105.803 154.586C106.903 153.214 108.024 151.859 109.207 150.642C116.669 141.73 128.494 145.14 138.214 142.252C144.783 140.414 146.357 133.067 149.835 128.049C150.815 126.617 151.816 125.231 152.87 123.902C153.661 122.905 154.483 121.944 155.343 121.024C162.45 115.498 170.994 110.305 173.593 101.024C173.593 101.024 173.593 101.396 173.481 101.445" stroke="#8E8BDE" stroke-width="0.84375" stroke-linecap="round" stroke-linejoin="round"/>
<path d="M32.0938 157.267C35.3784 158.548 39.0951 159.288 42.4395 158.176C58.0441 154.464 78.1067 147.043 88.881 164.857C89.2534 165.601 90.7393 165.601 91.9408 165.969C93.5497 166.134 95.257 165.741 96.7044 164.822C99.7712 162.636 102.367 159.958 104.897 157.187C105.74 156.274 106.572 155.358 107.415 154.46C110.893 150.653 114.835 146.194 119.827 145.93C133.225 145.144 147.414 143.569 151.05 128.794C151.704 127.723 152.406 126.688 153.193 125.727C154.243 124.415 155.427 123.365 156.706 122.415C157.988 121.464 159.365 120.611 160.813 119.692C166.539 114.394 169.511 107.344 173.466 101.488" stroke="#8E8BDE" stroke-width="0.84375" stroke-linecap="round" stroke-linejoin="round"/>
<path d="M32.6113 157.789C45.785 161.888 58.4176 152.979 71.7915 154.835C78.8526 155.579 83.6794 161.516 89.3353 165.382C91.9736 167.442 94.6013 166.975 97.2501 165.245C99.8953 163.516 102.562 160.523 105.267 157.568C106.619 156.091 107.982 154.624 109.363 153.333C112.468 150.649 115.619 148.547 119.561 147.761C132.436 145.923 145.044 142.775 152.481 131.881C153.598 130.407 154.634 128.803 155.555 127.031C156.605 124.933 159.76 124.407 161.074 122.045C161.731 121.126 162.128 120.077 162.553 118.979C165.795 112.902 169.884 107.337 173.436 101.533" stroke="#8E8BDE" stroke-width="0.84375" stroke-linecap="round" stroke-linejoin="round"/>
<path d="M33.1055 158.014C35.006 158.544 36.8644 160.028 39.0951 160.028C52.469 159.656 65.8464 152.607 78.8514 160.4C79.965 160.772 81.451 159.288 82.1958 160.4C83.6817 163.74 87.0261 165.965 90.388 166.681C92.0075 166.884 93.7113 166.786 95.4783 166.382C97.2454 165.979 99.0721 165.267 100.927 164.267C101.963 162.628 102.989 161.649 104.008 160.835C105.027 160.021 106.035 159.2 107.04 158.389C116.409 148.81 130.071 149.86 141.368 144.874C144.519 143.298 147.147 140.674 148.988 137.789C151.089 135.165 152.929 132.803 155.16 130.312C156.081 129.33 157.001 128.344 157.904 127.326C158.807 126.309 159.692 125.26 160.549 124.144C161.206 123.224 161.6 122.045 161.989 120.768C164.684 113.642 170.255 108.445 173.382 101.628" stroke="#8E8BDE" stroke-width="0.84375" stroke-linecap="round" stroke-linejoin="round"/>
<path d="M33.8125 158.54C35.7517 159.66 37.9789 160.772 40.2096 160.772C55.8143 159.288 74.022 154.835 86.6652 166.547C89.4685 166.993 92.1103 166.888 94.6502 166.347C97.1795 166.182 99.6386 164.807 102.024 163.54C103.615 162.695 105.182 161.73 106.728 160.702C111.147 157.733 115.089 153.274 120.344 152.747C134.006 151.172 147.141 145.926 153.728 133.607C154.761 131.491 156.601 130.179 158.179 128.603C159.756 127.028 160.74 125.126 161.555 123.14C162.366 121.154 163.02 119.081 164.01 117.154C166.909 111.786 170.249 106.593 173.594 101.396C173.594 101.396 173.221 101.768 173.26 101.846" stroke="#8E8BDE" stroke-width="0.84375" stroke-linecap="round" stroke-linejoin="round"/>
<path d="M34.7012 159.151C45.7846 161.144 57.6725 156.691 68.0744 160.403C74.0184 162.259 79.9623 165.968 86.1979 166.337C89.2471 166.53 92.2858 166.565 95.3175 166.161C98.3422 166.424 101.391 165.119 104.388 163.333C106.102 162.649 107.806 161.863 109.489 160.993C113.778 158.786 117.196 155.375 121.398 154.852C136.637 153.803 148.985 145.666 156.387 132.94C157.487 131.298 158.505 129.596 159.44 127.856C160.374 126.116 161.224 124.333 161.987 122.53C164.305 115.133 169.136 108.824 173.007 102.309" stroke="#8E8BDE" stroke-width="0.84375" stroke-linecap="round" stroke-linejoin="round"/>
<path d="M35.8145 159.842C46.8979 161.884 58.7858 158.547 69.1912 162.628C76.6212 165.596 84.4235 167.824 92.1555 167.502C93.8312 167.382 95.5139 167.147 97.1931 166.81C100.183 166.54 103.162 165.617 106.067 164.137C107.729 163.477 109.369 162.744 110.985 161.965C118.77 156.421 127.703 156.421 136.633 154.323C147.141 151.698 152.659 142.516 157.03 133.663C157.971 131.961 158.835 130.214 159.622 128.442C160.406 126.673 161.112 124.881 161.737 123.088C162.362 121.295 162.914 119.502 163.444 117.719C166.163 112.526 169.877 108.074 172.603 103.007" stroke="#8E8BDE" stroke-width="0.84375" stroke-linecap="round" stroke-linejoin="round"/>
<path d="M37.1152 160.575C52.4704 160.403 66.5891 163.743 81.0801 167.824C83.6797 168.568 86.6517 168.936 89.7677 168.617C92.0511 168.586 94.3451 168.407 96.6356 168.063C99.6954 167.965 102.752 167.21 105.748 165.87C107.463 165.305 109.156 164.666 110.821 163.961C119.818 158.522 130.329 158.522 139.785 154.849C147.929 151.961 151.87 144.354 155.784 137.28C156.704 135.529 157.593 133.751 158.422 131.944C159.669 129.235 160.768 126.452 161.749 123.673C162.24 122.284 162.701 120.898 163.15 119.522C164.678 113.642 169.136 109.189 172.084 103.919" stroke="#8E8BDE" stroke-width="0.84375" stroke-linecap="round" stroke-linejoin="round"/>
<path d="M38.5098 161.277C51.3567 162.631 63.9894 162.259 76.2532 167.824C79.2251 169.308 82.9419 168.936 86.4232 169.249C89.2863 169.336 92.1669 169.382 95.0616 169.168C97.9528 169.347 100.886 168.81 103.781 167.596C105.713 167.154 107.635 166.638 109.532 166.066C128.495 159.835 152.404 155.898 158.776 133.389C159.542 131.673 160.227 129.912 160.835 128.119C161.443 126.326 161.973 124.505 162.423 122.666C162.82 115.87 168.023 111.045 171.079 105.547" stroke="#8E8BDE" stroke-width="0.84375" stroke-linecap="round" stroke-linejoin="round"/>
<path d="M40.1875 162.021C53.2136 161.144 65.105 166.337 77.3653 169.677C80.3373 170.421 83.6816 168.933 86.5412 169.172C89.1197 168.996 91.6772 168.968 94.2241 168.937C96.771 169.27 99.3144 169.186 101.833 168.677C104.352 168.516 106.843 168.263 109.281 167.849C111.234 167.519 113.155 167.084 115.074 166.547C132.428 160.617 152.132 154.582 158.406 135.042C159.182 133.316 159.868 131.537 160.468 129.719C161.069 127.898 161.578 126.035 162 124.144C162.421 122.253 162.759 120.33 163.036 118.382C164.304 114.386 167.276 111.417 169.324 108.231" stroke="#8E8BDE" stroke-width="0.84375" stroke-linecap="round" stroke-linejoin="round"/>
<path d="M42.1973 162.821C55.4412 163.372 67.7015 168.197 81.0789 170.793C84.4232 171.165 87.7676 170.793 90.6904 169.056C92.1693 168.425 93.6799 167.835 95.3907 167.702C100.263 168.762 105.111 167.965 109.892 167.898C111.487 167.877 113.072 167.804 114.666 167.656C121.924 166.912 128.23 163.239 134.272 160.355C144.78 155.632 152.926 147.495 157.518 137.533C158.291 135.856 159.011 134.148 159.664 132.393C160.644 129.762 161.466 127.032 162.155 124.242C162.499 122.846 162.815 121.435 163.107 120.014C163.563 116.239 165.794 113.642 167.733 110.674" stroke="#8E8BDE" stroke-width="0.84375" stroke-linecap="round" stroke-linejoin="round"/>
<path d="M44.5977 163.673C60.6449 167.452 78.1079 174.502 94.3379 167.702C97.0253 168.081 99.6811 169.53 102.288 168.358C104.901 168.572 107.483 168.751 110.051 168.817C111.766 168.859 113.473 168.852 115.198 168.782C121.135 168.754 127.441 168.228 132.433 164.817C134.273 163.505 134.797 160.881 136.638 160.095C146.885 156.158 154.765 147.761 157.902 137.365C158.478 135.81 159.015 134.228 159.511 132.617C160.069 130.807 160.578 128.958 161.06 127.095C161.541 125.228 161.998 123.347 162.454 121.463C163.189 118.098 163.933 114.758 166.41 112.498" stroke="#8E8BDE" stroke-width="0.84375" stroke-linecap="round" stroke-linejoin="round"/>
<path d="M47.3438 164.674C61.761 171.165 78.1069 173.389 93.0229 167.965C95.5839 168.161 98.0957 168.344 100.583 168.491C103.067 168.642 105.526 168.761 107.978 168.835C109.611 168.884 111.245 168.916 112.878 168.923C119.033 168.751 125.862 170.326 130.854 167.439C142.415 160.091 155.287 152.481 157.869 138.484C158.315 136.863 158.709 135.239 159.074 133.603C159.892 129.926 160.553 126.182 161.568 122.467C161.905 121.228 162.288 119.989 162.748 118.754C163.483 116.888 164.512 115.074 165.773 113.267C165.773 113.267 165.657 113.807 165.496 113.846" stroke="#8E8BDE" stroke-width="0.84375" stroke-linecap="round" stroke-linejoin="round"/>
<path d="M50.0879 166.042C62.1304 175.618 78.1074 169.309 91.8185 168.856C94.0914 168.702 96.3783 168.597 98.7074 168.614C101.809 168.674 104.978 168.92 108.263 169.541C109.577 169.804 110.908 169.853 112.246 169.786C113.588 169.72 114.944 169.541 116.321 169.355C120.344 168.488 124.285 169.277 128.227 169.014C132.955 168.488 137.684 166.39 140.048 161.93C140.575 160.881 140.312 159.569 138.998 158.783C150.819 157.47 156.601 145.923 158.569 135.776C159.071 133.979 159.528 132.144 159.97 130.309C160.304 128.93 160.627 127.551 160.961 126.179C161.291 124.807 161.632 123.446 161.987 122.105C162.651 119.418 163.757 116.783 165.176 114.407C165.176 114.407 164.899 114.67 164.85 114.842" stroke="#8E8BDE" stroke-width="0.84375" stroke-linecap="round" stroke-linejoin="round"/>
<path d="M52.3965 167.786C56.187 171.905 61.7621 173.389 67.3337 172.649C75.136 171.165 82.197 169.68 90.0731 169.782C92.1563 169.814 94.243 169.884 96.3368 169.933C100.528 170.038 104.757 170.066 109.05 169.803C111.284 169.673 113.452 169.477 115.655 169.435C124.813 170.326 136.374 169.277 142.416 161.143C143.203 160.358 142.416 159.045 141.103 158.782C150.823 156.943 156.602 146.975 157.902 137.543C158.376 135.582 158.808 133.586 159.223 131.575C159.637 129.565 160.034 127.543 160.456 125.55C160.877 123.558 161.33 121.589 161.861 119.684C162.423 118.101 163.551 117.038 164.39 115.6" stroke="#8E8BDE" stroke-width="0.84375" stroke-linecap="round" stroke-linejoin="round"/>
<path d="M54.3848 169.906C56.9282 173.762 61.7585 175.618 66.22 174.506C73.2811 172.649 79.5939 169.681 86.8271 170.028C89.2791 169.997 91.689 170.113 94.0849 170.249C98.8731 171.663 103.647 170.828 108.39 170.849C110.287 170.856 112.18 170.821 114.07 170.72C123.766 169.278 136.114 169.018 143.207 160.881C150.036 153.534 157.919 146.713 158.65 135.902C158.962 134.249 159.251 132.569 159.549 130.888C159.999 128.365 160.48 125.839 161.134 123.393C161.46 122.172 161.833 120.969 162.272 119.8C162.721 118.625 163.273 117.478 163.954 116.365" stroke="#8E8BDE" stroke-width="0.84375" stroke-linecap="round" stroke-linejoin="round"/>
</g>
<defs>
<clipPath id="clip0_124_100790">
<rect width="176" height="175" fill="white"/>
</clipPath>
</defs>
</svg>
