<?xml version="1.0" encoding="UTF-8"?>
<svg version="1.1" xmlns="http://www.w3.org/2000/svg" width="500" height="500">
<path d="M0 0 C0.99 0.33 1.98 0.66 3 1 C7.56621104 14.69863311 4.82009506 31.20224675 2 45 C4.73167831 43.4242054 6.94672029 42.05327971 9.1875 39.8125 C9.785625 39.214375 10.38375 38.61625 11 38 C11.66 38 12.32 38 13 38 C13.21011719 37.43925781 13.42023438 36.87851563 13.63671875 36.30078125 C15.46942025 33.20776926 17.98298228 31.31478961 20.8125 29.1875 C21.3914502 28.75099121 21.97040039 28.31448242 22.56689453 27.86474609 C36.74810596 17.41401843 52.30056627 11.87339461 70 12 C70.99 12.495 70.99 12.495 72 13 C71.12452642 18.9738197 68.40718145 22.01356888 64 26 C50.60015237 35.71732292 36.37242675 43.1350849 19.6875 44.8125 C11.29129832 45.8585229 7.76946036 49.74588408 2.5 55.9375 C2.005 56.618125 1.51 57.29875 1 58 C2.7634375 57.1646875 2.7634375 57.1646875 4.5625 56.3125 C8.92798517 54.37692603 13.36113195 52.73568758 17.875 51.1875 C18.52927979 50.95651611 19.18355957 50.72553223 19.85766602 50.48754883 C24.64527058 48.88175686 24.64527058 48.88175686 28 50 C24.57391521 67.49106447 13.40425319 82.72748474 -1.015625 93.1875 C-8.42842742 98 -8.42842742 98 -11 98 C-11 98.66 -11 99.32 -11 100 C-12.76858691 100.67260351 -14.53996016 101.33788395 -16.3125 102 C-17.79169922 102.556875 -17.79169922 102.556875 -19.30078125 103.125 C-22 104 -22 104 -25 104 C-26.18590744 111.25422103 -27.23626755 118.51634531 -28.125 125.8125 C-28.25624268 126.85071899 -28.25624268 126.85071899 -28.39013672 127.90991211 C-28.95049586 132.63688536 -29.07462698 137.23986485 -29 142 C-28.64808594 140.90042969 -28.29617187 139.80085937 -27.93359375 138.66796875 C-24.95410258 129.63427438 -21.72593482 121.70288915 -16 114 C-15.33613281 113.10410156 -14.67226562 112.20820313 -13.98828125 111.28515625 C-10.38382018 106.60965532 -6.85821417 102.38945175 -2 99 C-1.01 99 -0.02 99 1 99 C1.22070033 105.84625154 0.70995113 112.1731393 -0.6875 118.875 C-0.86684082 119.74632568 -1.04618164 120.61765137 -1.23095703 121.51538086 C-2.72483085 128.408066 -4.83207147 134.68272316 -8 141 C-8.42925781 141.9178125 -8.85851562 142.835625 -9.30078125 143.78125 C-13.3909667 151.98466421 -19.30280093 159.86853395 -27 165 C-26.60336819 173.0572637 -25.03106941 180.21288231 -22.5625 187.875 C-22.09360352 189.38320313 -22.09360352 189.38320313 -21.61523438 190.921875 C-20.22456999 195.3555365 -18.76487416 199.69935388 -17 204 C-16.67 204 -16.34 204 -16 204 C-15.93006836 203.34104736 -15.86013672 202.68209473 -15.78808594 202.00317383 C-13.88396416 184.47270221 -11.01654058 170.20680469 -2.8046875 154.53125 C-1.36505108 151.71429909 -0.1040324 148.95926211 1 146 C2.32 146 3.64 146 5 146 C7.42176867 153.02160601 8.69178079 159.58405896 9 167 C9.05285156 168.22976563 9.10570312 169.45953125 9.16015625 170.7265625 C9.64434978 187.48790009 6.4511809 206.37185218 -4.80078125 219.484375 C-6.22516894 221.10773158 -6.22516894 221.10773158 -7 224 C-6.34 224 -5.68 224 -5 224 C-3.59765625 225.64453125 -3.59765625 225.64453125 -2.0625 227.8125 C-0.56247678 229.91867071 0.83158512 231.83703041 2.69140625 233.63671875 C4 235 4 235 4 237 C4.66 237 5.32 237 6 237 C6 237.66 6 238.32 6 239 C6.66 239 7.32 239 8 239 C8 239.66 8 240.32 8 241 C9.65 241.66 11.3 242.32 13 243 C13 243.66 13 244.32 13 245 C14.65 245.66 16.3 246.32 18 247 C17.55011719 246.17628906 17.10023438 245.35257813 16.63671875 244.50390625 C8.10283229 226.23446434 9.45613213 204.14074911 14 185 C14.33 184.34 14.66 183.68 15 183 C20.12313317 184.8950084 21.2599102 188.81762663 23.48046875 193.51171875 C30.54198818 209.72235333 35.287613 227.44798832 30.51171875 245.02734375 C29.66030614 248.30950688 29.36724282 251.63360751 29 255 C35.28896562 257.18759031 41.61451774 259.03173419 48.0625 260.6875 C48.92810547 260.91244141 49.79371094 261.13738281 50.68554688 261.36914062 C52.78965238 261.91551056 54.89472496 262.45815403 57 263 C57 264.65 57 266.3 57 268 C51.23365392 268.20617103 46.44936918 267.67118629 40.9375 266 C40.2057959 265.77997314 39.4740918 265.55994629 38.72021484 265.33325195 C26.95150946 261.58935636 15.27019486 255.21019336 6 247 C6 246.34 6 245.68 6 245 C5.34 245.33 4.68 245.66 4 246 C1.42636176 246.09909819 -1.11434091 246.13892151 -3.6875 246.125 C-4.73067383 246.13080078 -4.73067383 246.13080078 -5.79492188 246.13671875 C-23.05267087 246.10449139 -37.97924693 237.72973984 -50.70703125 226.4453125 C-52 225 -52 225 -52 223 C-52.66 223 -53.32 223 -54 223 C-54 222.34 -54 221.68 -54 221 C-54.66 221 -55.32 221 -56 221 C-56 220.34 -56 219.68 -56 219 C-56.99 218.67 -57.98 218.34 -59 218 C-59.33 217.01 -59.66 216.02 -60 215 C-46.41003071 211.74536385 -29.14558594 216.69021999 -17 223 C-16.34 223.33 -15.68 223.66 -15 224 C-18.01962863 215.92261611 -18.01962863 215.92261611 -22.3125 208.5 C-24 206 -24 206 -24 202 C-25.670625 201.6596875 -25.670625 201.6596875 -27.375 201.3125 C-43.01547755 197.29930189 -55.92998033 185.45700204 -64.27636719 171.93164062 C-65.56014718 169.72499052 -66.79316909 167.49960748 -68 165.25 C-68.37398926 164.55326172 -68.74797852 163.85652344 -69.13330078 163.13867188 C-71.50418101 158.50452896 -72.9046365 154.08887626 -74 149 C-67.9703109 149.449859 -63.90424904 151.36514446 -58.75 154.4375 C-58.04359375 154.84548828 -57.3371875 155.25347656 -56.609375 155.67382812 C-53.67731294 157.37586794 -50.82238953 159.11840698 -48 161 C-48 161.66 -48 162.32 -48 163 C-47.43539062 163.23847656 -46.87078125 163.47695313 -46.2890625 163.72265625 C-43.50714848 165.27502124 -41.60516668 167.16631019 -39.375 169.4375 C-38.59898438 170.21996094 -37.82296875 171.00242187 -37.0234375 171.80859375 C-35 174 -35 174 -33 177 C-33.144375 175.92621094 -33.28875 174.85242188 -33.4375 173.74609375 C-33.62523429 172.30992644 -33.81272109 170.87372676 -34 169.4375 C-34.09539062 168.73302734 -34.19078125 168.02855469 -34.2890625 167.30273438 C-34.86666417 162.82632145 -35.09489383 158.51338762 -35 154 C-35.57234375 153.7421875 -36.1446875 153.484375 -36.734375 153.21875 C-39.21128995 151.88634058 -41.1341166 150.34943882 -43.25 148.5 C-43.95640625 147.8915625 -44.6628125 147.283125 -45.390625 146.65625 C-47 145 -47 145 -47 143 C-47.99 142.67 -48.98 142.34 -50 142 C-51.44137147 139.87197929 -52.70606804 137.80716128 -53.9375 135.5625 C-54.29158936 134.9243335 -54.64567871 134.28616699 -55.01049805 133.62866211 C-62.72414446 119.50030398 -65.28569235 104.98571262 -66 89 C-62 89 -62 89 -59 91 C-59 91.66 -59 92.32 -59 93 C-58.15501953 93.32291016 -58.15501953 93.32291016 -57.29296875 93.65234375 C-47.04932543 99.67288369 -41.06643842 114.78145874 -36 125 C-35.67 125 -35.34 125 -35 125 C-34.4657727 122.14776949 -33.94736834 119.29409862 -33.4375 116.4375 C-33.28603516 115.63763672 -33.13457031 114.83777344 -32.97851562 114.01367188 C-31.85976449 107.63939213 -31.54120264 101.76466226 -35 96 C-35.66 96 -36.32 96 -37 96 C-37.67595315 94.58774074 -38.34040059 93.16997095 -39 91.75 C-39.37125 90.96109375 -39.7425 90.1721875 -40.125 89.359375 C-41 87 -41 87 -41 83 C-41.66 83 -42.32 83 -43 83 C-44.58192928 76.74367635 -45.45009684 70.69289856 -45.75 64.25 C-45.79237793 63.37819092 -45.83475586 62.50638184 -45.87841797 61.6081543 C-46.14143762 54.52428912 -45.3631079 47.95185028 -44 41 C-43.61385052 38.00314425 -43.3057341 35.00638533 -43 32 C-41.68 32 -40.36 32 -39 32 C-29.88082033 46.88938021 -23.31488089 62.18690308 -24 80 C-20.17765924 76.60236376 -16.94677434 72.75413992 -15 68 C-14.79574218 64.2305147 -15.47060387 60.77861865 -16.54296875 57.17578125 C-20.16209363 39.9462722 -13.72536617 23.05869884 -6 8 C-5.34 8 -4.68 8 -4 8 C-3.71125 7.236875 -3.4225 6.47375 -3.125 5.6875 C-2 3 -2 3 0 0 Z M0 47 C1 49 1 49 1 49 Z M-2 60 C-2.33 60.66 -2.66 61.32 -3 62 C-2.34 62 -1.68 62 -1 62 C-1.33 61.34 -1.66 60.68 -2 60 Z " fill="#292323" transform="translate(136,117)"/>
<path d="M0 0 C0.66 0 1.32 0 2 0 C14.28187018 16.1603555 20.58873412 36.88997071 19 57 C18.5688503 59.13068167 18.11262731 61.25653026 17.625 63.375 C16.6861647 68.09489799 17.26373694 70.3802501 19.75 74.5 C20.82451504 76.00632949 21.90720733 77.50687734 23 79 C23.69541021 80.31857001 24.37296688 81.64757563 25 83 C25.12955078 81.5459375 25.12955078 81.5459375 25.26171875 80.0625 C26.92242714 63.48048343 31.68326172 47.97510742 41 34 C42.98 34.495 42.98 34.495 45 35 C49.46570661 56.95639085 49.8448082 78.47738345 37.78076172 98.09155273 C34.59809254 103.3294152 33.5589632 107.06396974 34.77734375 113.08203125 C34.96103516 114.01337891 35.14472656 114.94472656 35.33398438 115.90429688 C35.63272461 117.34385742 35.63272461 117.34385742 35.9375 118.8125 C36.13279297 119.79154297 36.32808594 120.77058594 36.52929688 121.77929688 C37.01104649 124.18804496 37.50152341 126.59466777 38 129 C38.36351562 128.10539063 38.72703125 127.21078125 39.1015625 126.2890625 C45.5159121 110.86172937 45.5159121 110.86172937 50 105 C50.66 105 51.32 105 52 105 C52.268125 104.4225 52.53625 103.845 52.8125 103.25 C54.02929189 100.94449957 55.30333879 98.97943808 57 97 C57.66 97 58.32 97 59 97 C59 96.34 59 95.68 59 95 C59.66 95 60.32 95 61 95 C61 94.34 61 93.68 61 93 C61.66 93 62.32 93 63 93 C63 92.01 63 91.02 63 90 C64.65 90.33 66.3 90.66 68 91 C66.89957792 106.62509885 65.07039439 120.78399426 58 135 C57.34 135 56.68 135 56 135 C55.773125 135.845625 55.54625 136.69125 55.3125 137.5625 C52.7714524 144.21762466 49.72224079 147.68528363 43.8125 151.4375 C40.31986519 153.79010564 39.17211901 154.60756865 37.4375 158.5625 C37.12436842 160.61150955 37.12436842 160.61150955 37 163 C36.89558594 164.19496094 36.79117188 165.38992188 36.68359375 166.62109375 C36.40843101 170.07978488 36.18490463 173.53547114 36 177 C36.99 176.67 37.98 176.34 39 176 C39 175.34 39 174.68 39 174 C39.66 174 40.32 174 41 174 C41.26296875 173.40574219 41.5259375 172.81148437 41.796875 172.19921875 C45.21606558 165.9492048 52.22185997 162.04269389 58.0625 158.25 C58.63967773 157.87335205 59.21685547 157.4967041 59.81152344 157.10864258 C65.11529849 153.745328 70.51221723 150.41020157 77 151 C77 151.99 77 152.98 77 154 C76.34 154.33 75.68 154.66 75 155 C74.20931924 156.74423584 73.49281131 158.52232927 72.8125 160.3125 C68.150511 171.75063579 62.07327265 181.57363344 53 190 C52.34 190 51.68 190 51 190 C51 190.66 51 191.32 51 192 C46.31579429 196.17720933 41.18665515 198.99112608 35.33520508 201.17944336 C28.04492823 203.99876203 24.56562061 206.94869206 21.25 214.125 C20.38320571 216.13808647 19.55424579 218.15907632 18.75585938 220.20019531 C17.73976884 222.61964603 16.42143732 224.79934102 15 227 C15.61875 226.5875 16.2375 226.175 16.875 225.75 C30.96297689 217.86073294 45.197197 216.52112718 61 217 C58.39227208 224.65022222 51.89171716 230.06187591 45 234 C44.34 234 43.68 234 43 234 C43 234.66 43 235.32 43 236 C33.24637778 241.5718297 24.28756423 246.43666518 13 248 C11.91332031 248.15082031 10.82664062 248.30164063 9.70703125 248.45703125 C4.4334059 249.0415622 0.89027236 249.29452997 -4 247 C-4 247.66 -4 248.32 -4 249 C-17.39700387 260.29146551 -36.94742746 271.4442058 -55 270 C-55 268.35 -55 266.7 -55 265 C-54.05640625 264.75765625 -53.1128125 264.5153125 -52.140625 264.265625 C-37.99797083 261.55428296 -37.99797083 261.55428296 -26 255 C-26.20496094 254.41992188 -26.40992188 253.83984375 -26.62109375 253.2421875 C-26.89050781 252.46101562 -27.15992188 251.67984375 -27.4375 250.875 C-27.70433594 250.10929688 -27.97117187 249.34359375 -28.24609375 248.5546875 C-33.5694898 230.51582211 -29.02659779 210.25672984 -20.44921875 194.07421875 C-16.51458818 187.17152939 -16.51458818 187.17152939 -13 186 C-12.51849058 188.04111542 -12.03989917 190.08291932 -11.5625 192.125 C-11.16224609 193.83042969 -11.16224609 193.83042969 -10.75390625 195.5703125 C-7.56210849 210.09051166 -7.86735447 224.63793429 -12.22265625 238.84765625 C-12.95942768 241.83546801 -13.11332066 243.19219129 -12 246 C-11.05125 245.175 -10.1025 244.35 -9.125 243.5 C-6.25 241 -6.25 241 -4 241 C-4 240.34 -4 239.68 -4 239 C-3.34 239 -2.68 239 -2 239 C-2 238.34 -2 237.68 -2 237 C-1.34 237 -0.68 237 0 237 C0.2475 236.443125 0.495 235.88625 0.75 235.3125 C2.21585054 232.6006765 4.05455699 230.3847366 6 228 C6.33 227.34 6.66 226.68 7 226 C7.66 226 8.32 226 9 226 C8.443125 225.030625 7.88625 224.06125 7.3125 223.0625 C6.94769531 222.42054688 6.58289063 221.77859375 6.20703125 221.1171875 C5.39977612 219.70122543 4.58459706 218.2897527 3.76171875 216.8828125 C-8.04613935 196.33787055 -9.49574957 173.96933218 -3.875 151.125 C-3.58625 150.09375 -3.2975 149.0625 -3 148 C-2.01 148 -1.02 148 0 148 C0 148.66 0 149.32 0 150 C0.66 150 1.32 150 2 150 C3.62001548 153.26320649 5.21790114 156.53680805 6.8125 159.8125 C7.26431641 160.72193359 7.71613281 161.63136719 8.18164062 162.56835938 C15.22893702 177.12591323 17.42803232 191.92500843 17 208 C21.52523154 203.47476846 22.52351463 196.97924217 24 191 C24.66 191 25.32 191 26 191 C26.185625 189.081875 26.185625 189.081875 26.375 187.125 C26.84595089 182.79771215 27.64726117 178.60493552 28.59765625 174.359375 C29.03424791 171.7991676 29.2736163 169.58849706 29 167 C27.515 166.01 27.515 166.01 26 165 C26 164.34 26 163.68 26 163 C24.02 162.01 24.02 162.01 22 161 C22 160.34 22 159.68 22 159 C21.34 159 20.68 159 20 159 C19.01 156.525 19.01 156.525 18 154 C17.34 154 16.68 154 16 154 C6.76610951 136.56329861 2.15565936 120.58884971 0 101 C5.0504961 101 6.13697583 102.25379268 9.71484375 105.55078125 C20.11353865 116.69604912 26.54621064 129.5189642 31 144 C31.16198216 137.14040757 30.55980801 130.65669448 29.5625 123.875 C29.42779297 122.92496094 29.29308594 121.97492188 29.15429688 120.99609375 C28.77525609 118.32986542 28.38851694 115.66486117 28 113 C27.80023993 111.60684834 27.60093888 110.2136307 27.40234375 108.8203125 C27.26957031 107.88960938 27.13679688 106.95890625 27 106 C26.26652344 105.86464844 25.53304687 105.72929687 24.77734375 105.58984375 C6.11019626 101.6253722 -8.89986441 86.46372216 -19.08203125 71.109375 C-23.3360055 64.21291165 -25.59376376 59.1642517 -25 51 C-15.8985467 51.79143072 -8.01644761 55.84332346 0 60 C-2.72361721 54.85538972 -5.85775332 50.12404065 -11.48291016 48.11181641 C-14.39501684 47.43067266 -17.30159337 46.87588761 -20.25 46.375 C-36.68237741 43.410728 -52.87957688 36.9132364 -65 25 C-65.33 24.01 -65.66 23.02 -66 22 C-66.66 22 -67.32 22 -68 22 C-68.66 19.69 -69.32 17.38 -70 15 C-57.4798315 12.60558989 -45.70889051 16.77536368 -34 21 C-34 21.66 -34 22.32 -34 23 C-33.30519531 23.08378906 -32.61039062 23.16757813 -31.89453125 23.25390625 C-28.27108409 24.18788521 -25.78348709 25.84704718 -22.6875 27.9375 C-21.08455078 29.00291016 -21.08455078 29.00291016 -19.44921875 30.08984375 C-18.64097656 30.72019531 -17.83273437 31.35054687 -17 32 C-17 32.66 -17 33.32 -17 34 C-16.34 34 -15.68 34 -15 34 C-15 34.66 -15 35.32 -15 36 C-14.34 36 -13.68 36 -13 36 C-11.31066078 37.6436814 -9.64740076 39.3142876 -8 41 C-6.34466005 42.34736973 -4.67987227 43.68334336 -3 45 C-2.34 45.66 -1.68 46.32 -1 47 C-0.67 46.67 -0.34 46.34 0 46 C-0.28875 44.865625 -0.5775 43.73125 -0.875 42.5625 C-4.09122125 28.70631394 -3.71539369 13.71318035 0 0 Z M1 61 C1.99 62.485 1.99 62.485 3 64 C3.66 63.67 4.32 63.34 5 63 C3.68 62.34 2.36 61.68 1 61 Z " fill="#282323" transform="translate(362,115)"/>
<path d="M0 0 C1.32 0 2.64 0 4 0 C6.42176867 7.02160601 7.69178079 13.58405896 8 21 C8.05285156 22.22976563 8.10570312 23.45953125 8.16015625 24.7265625 C8.52002105 37.18400979 6.50257709 48.7047785 2.0625 60.375 C1.82192871 61.02412354 1.58135742 61.67324707 1.33349609 62.34204102 C-0.46363785 66.75378423 -0.46363785 66.75378423 -3.05078125 67.94140625 C-5.21653749 68.00650914 -6.94240749 67.66136902 -9 67 C-9.66 68.32 -10.32 69.64 -11 71 C-11.99 70.67 -12.98 70.34 -14 70 C-14.495 70.99 -14.495 70.99 -15 72 C-15 70.68 -15 69.36 -15 68 C-15.66 67.67 -16.32 67.34 -17 67 C-15.515 66.505 -15.515 66.505 -14 66 C-14 64.68 -14 63.36 -14 62 C-15.32 61.34 -16.64 60.68 -18 60 C-17.67 59.34 -17.34 58.68 -17 58 C-16.75742519 56.34237516 -16.56021818 54.67799021 -16.38671875 53.01171875 C-14.58242281 36.60950413 -11.47156684 23.16650775 -3.8046875 8.53125 C-2.36505108 5.71429909 -1.1040324 2.95926211 0 0 Z " fill="#272121" transform="translate(137,263)"/>
<path d="M0 0 C0.33 0.66 0.66 1.32 1 2 C7.01597376 4.65937771 13.707638 6.05564638 20.0625 7.6875 C21.3609082 8.02491211 21.3609082 8.02491211 22.68554688 8.36914062 C24.78965238 8.91551056 26.89472496 9.45815403 29 10 C29 11.65 29 13.3 29 15 C23.0789125 15.23285176 18.26799592 14.56644779 12.625 12.8125 C11.88838135 12.59053955 11.1517627 12.3685791 10.39282227 12.13989258 C4.6167032 10.33663803 -0.75119415 8.03063728 -6 5 C-5.67 4.01 -5.34 3.02 -5 2 C-4.01 1.67 -3.02 1.34 -2 1 C-1.34 1.33 -0.68 1.66 0 2 C0 1.34 0 0.68 0 0 Z " fill="#362C29" transform="translate(164,370)"/>
<path d="M0 0 C0.33 0.99 0.66 1.98 1 3 C1.99 2.67 2.98 2.34 4 2 C4.99 2.66 5.98 3.32 7 4 C-3.90682225 9.43529348 -15.53382359 14.99729411 -28 14 C-28 12.35 -28 10.7 -28 9 C-26.58460938 8.63648438 -26.58460938 8.63648438 -25.140625 8.265625 C-11.57867669 5.79990242 -11.57867669 5.79990242 0 0 Z " fill="#35302F" transform="translate(335,371)"/>
<path d="M0 0 C4.52698636 1.39910413 6.75155982 3.5615174 9.8125 7.125 C10.99779297 8.49011719 10.99779297 8.49011719 12.20703125 9.8828125 C12.79871094 10.58148438 13.39039063 11.28015625 14 12 C12.68 12.99 11.36 13.98 10 15 C9.34 14.67 8.68 14.34 8 14 C8 13.67 8 13.34 8 13 C6.02 13 4.04 13 2 13 C1.67 14.32 1.34 15.64 1 17 C0.63917123 14.35491639 0.28604648 11.70920453 -0.0625 9.0625 C-0.16626953 8.30775391 -0.27003906 7.55300781 -0.37695312 6.77539062 C-0.62665638 4.85525872 -0.81790281 2.92771856 -1 1 C-0.67 0.67 -0.34 0.34 0 0 Z " fill="#363332" transform="translate(363,215)"/>
<path d="M0 0 C5.77378925 0.4811491 9.95859836 2.18467181 15 5 C12.92446352 5.5534764 11.15634036 6 9 6 C9 7.32 9 8.64 9 10 C9.99 9.67 10.98 9.34 12 9 C12 9.66 12 10.32 12 11 C11.01 11 10.02 11 9 11 C9.33 11.99 9.66 12.98 10 14 C9.5625 16.1875 9.5625 16.1875 9 18 C8.34 18 7.68 18 7 18 C6.01407845 15.94072044 5.03652506 13.87743312 4.0625 11.8125 C3.51722656 10.66394531 2.97195312 9.51539063 2.41015625 8.33203125 C1.20539869 5.48533264 0.45223729 3.03972155 0 0 Z " fill="#302B2C" transform="translate(62,266)"/>
<path d="M0 0 C0.66 0 1.32 0 2 0 C2.33 0.66 2.66 1.32 3 2 C3.99 2 4.98 2 6 2 C6.33 4.97 6.66 7.94 7 11 C7.99 10.67 8.98 10.34 10 10 C10 9.34 10 8.68 10 8 C10.66 8.33 11.32 8.66 12 9 C10.875 11.4375 10.875 11.4375 9 14 C5.8125 14.8125 5.8125 14.8125 3 15 C2.67 16.32 2.34 17.64 2 19 C1.67 18.34 1.34 17.68 1 17 C0.34 17 -0.32 17 -1 17 C-1.33 17.99 -1.66 18.98 -2 20 C-1.855625 18.9275 -1.71125 17.855 -1.5625 16.75 C-0.8615969 11.18282682 -0.43811078 5.5929036 0 0 Z " fill="#312F30" transform="translate(391,281)"/>
<path d="M0 0 C0.33 0 0.66 0 1 0 C1.33 1.65 1.66 3.3 2 5 C2.33 4.34 2.66 3.68 3 3 C4.32 3.33 5.64 3.66 7 4 C7.33 9.28 7.66 14.56 8 20 C5 21 5 21 2 20 C1.7834375 18.39125 1.7834375 18.39125 1.5625 16.75 C1.11745015 13.27836474 1.11745015 13.27836474 0.46875 11.0625 C-0.06128875 8.73032949 -0.09762739 6.63866227 -0.0625 4.25 C-0.05347656 3.45078125 -0.04445313 2.6515625 -0.03515625 1.828125 C-0.02355469 1.22484375 -0.01195313 0.6215625 0 0 Z " fill="#423E40" transform="translate(102,278)"/>
<path d="M0 0 C1.98 0.99 3.96 1.98 6 3 C6.33 2.34 6.66 1.68 7 1 C9.475 1.99 9.475 1.99 12 3 C12.33 2.34 12.66 1.68 13 1 C13.66 2.32 14.32 3.64 15 5 C9.70769231 9.92307692 9.70769231 9.92307692 6.125 10.3125 C5.073125 10.1578125 5.073125 10.1578125 4 10 C3.34 11.32 2.68 12.64 2 14 C2 11.69 2 9.38 2 7 C1.34 7 0.68 7 0 7 C0 4.69 0 2.38 0 0 Z " fill="#312A2B" transform="translate(101,271)"/>
<path d="M0 0 C0.33 0.66 0.66 1.32 1 2 C3.01805081 2.7609625 3.01805081 2.7609625 5.375 3.375 C8.34462722 4.30979521 9.79744498 4.80358301 12.0625 7 C13 9 13 9 13 12 C5.93463111 10.74646681 0.28543527 8.43796251 -6 5 C-5.67 4.01 -5.34 3.02 -5 2 C-4.01 1.67 -3.02 1.34 -2 1 C-1.34 1.33 -0.68 1.66 0 2 C0 1.34 0 0.68 0 0 Z " fill="#362E2C" transform="translate(164,370)"/>
<path d="M0 0 C4.571279 0.54855348 8.67435795 1.41744803 13 3 C12.67 4.32 12.34 5.64 12 7 C9.69 7.33 7.38 7.66 5 8 C4.84850702 11.62885324 4.84850702 11.62885324 6 15 C5.34 15.66 4.68 16.32 4 17 C0.92291196 11.06561592 -0.48736475 6.70126536 0 0 Z " fill="#3A3637" transform="translate(337,166)"/>
<path d="M0 0 C1.07174763 3.65188082 0.76411467 6.26432828 0 10 C1.32 9.34 2.64 8.68 4 8 C3.33333333 14.66666667 2.66666667 21.33333333 2 28 C1.67 28 1.34 28 1 28 C1 25.69 1 23.38 1 21 C0.01 21.33 -0.98 21.66 -2 22 C-3 21 -3 21 -3.25 17.75 C-3.20566275 11.67579714 -1.49816829 5.84999048 0 0 Z " fill="#262324" transform="translate(105,221)"/>
<path d="M0 0 C0.598125 0.78375 1.19625 1.5675 1.8125 2.375 C3.91085249 5.14574323 3.91085249 5.14574323 7 7 C6.625 8.9375 6.625 8.9375 6 11 C5.01 11.495 5.01 11.495 4 12 C4.309375 13.1446875 4.309375 13.1446875 4.625 14.3125 C5 17 5 17 3 20 C1.96486753 17.9237343 0.94733789 15.83868521 -0.0625 13.75 C-0.63097656 12.58984375 -1.19945313 11.4296875 -1.78515625 10.234375 C-2.96485975 7.09355667 -3.30230734 6.00646952 -2 3 C-1.34 3 -0.68 3 0 3 C0 2.01 0 1.02 0 0 Z " fill="#363433" transform="translate(117,318)"/>
<path d="M0 0 C0.66666667 2.66666667 1.33333333 5.33333333 2 8 C0.4050992 9.19991599 -1.20126147 10.38461318 -2.8125 11.5625 C-3.70582031 12.22378906 -4.59914063 12.88507813 -5.51953125 13.56640625 C-6.33808594 14.03949219 -7.15664063 14.51257813 -8 15 C-8.99 14.67 -9.98 14.34 -11 14 C-10.42906864 10.6885981 -9.45395174 9.24945577 -7 7 C-6.67 6.34 -6.34 5.68 -6 5 C-4.07286182 3.23835014 -2.03176334 1.64270227 0 0 Z " fill="#302928" transform="translate(356,356)"/>
<path d="M0 0 C0.99 0.33 1.98 0.66 3 1 C3.07347656 1.92619141 3.07347656 1.92619141 3.1484375 2.87109375 C3.66608422 8.73478159 4.61582123 14.27872775 6 20 C5.34 20 4.68 20 4 20 C3.34 19.01 2.68 18.02 2 17 C1.67 17 1.34 17 1 17 C0.67 18.65 0.34 20.3 0 22 C-0.33 22 -0.66 22 -1 22 C-1.66 17.05 -2.32 12.1 -3 7 C-1.68 7 -0.36 7 1 7 C0.67 4.69 0.34 2.38 0 0 Z " fill="#494544" transform="translate(393,218)"/>
<path d="M0 0 C1.65 0.33 3.3 0.66 5 1 C4.67 3.31 4.34 5.62 4 8 C3.21625 7.938125 2.4325 7.87625 1.625 7.8125 C0.325625 7.9053125 0.325625 7.9053125 -1 8 C-1.99 9.485 -1.99 9.485 -3 11 C-5.4375 12.75 -5.4375 12.75 -8 14 C-8.99 13.67 -9.98 13.34 -11 13 C-9.38405168 10.95880212 -7.7143618 8.95927063 -6 7 C-5.34 7 -4.68 7 -4 7 C-4 6.34 -4 5.68 -4 5 C-3.34 5 -2.68 5 -2 5 C-2 4.34 -2 3.68 -2 3 C-1.34 3 -0.68 3 0 3 C0 2.01 0 1.02 0 0 Z " fill="#322F30" transform="translate(425,205)"/>
<path d="M0 0 C-0.57584432 2.38564077 -1.22227595 4.66682784 -2 7 C-5.0625 8.6875 -5.0625 8.6875 -8 10 C-8 9.01 -8 8.02 -8 7 C-10.64 6.67 -13.28 6.34 -16 6 C-13.75 3.4375 -13.75 3.4375 -11 1 C-8.9375 1.3125 -8.9375 1.3125 -7 2 C-2.6 0 -2.6 0 0 0 Z M-11 4 C-11.33 4.66 -11.66 5.32 -12 6 C-11.34 6 -10.68 6 -10 6 C-10.33 5.34 -10.66 4.68 -11 4 Z " fill="#2A2726" transform="translate(145,173)"/>
<path d="M0 0 C0.33 0.99 0.66 1.98 1 3 C1.66 3.66 2.32 4.32 3 5 C-2.57067277 6.59162079 -7.21101581 7.20674944 -13 7 C-13 5.35 -13 3.7 -13 2 C-4.57142857 -0.28571429 -4.57142857 -0.28571429 0 0 Z " fill="#4B4340" transform="translate(320,378)"/>
<path d="M0 0 C1.32 0 2.64 0 4 0 C5.0748291 6.27467799 4.88341198 10.90660831 3 17 C1.66104368 15.33784732 0.32869858 13.67036393 -1 12 C-1.598125 11.34 -2.19625 10.68 -2.8125 10 C-4 8 -4 8 -3.6875 5.25 C-3.460625 4.5075 -3.23375 3.765 -3 3 C-2.01 4.485 -2.01 4.485 -1 6 C-0.67 4.02 -0.34 2.04 0 0 Z " fill="#191617" transform="translate(102,242)"/>
<path d="M0 0 C3.465 1.98 3.465 1.98 7 4 C6.67 5.65 6.34 7.3 6 9 C6.99 9.33 7.98 9.66 9 10 C8.67 11.65 8.34 13.3 8 15 C7.55269531 14.61328125 7.10539062 14.2265625 6.64453125 13.828125 C3.1478974 10.81609925 -0.37407463 7.85678969 -4 5 C-2.68 5 -1.36 5 0 5 C0 3.35 0 1.7 0 0 Z " fill="#3E3B3C" transform="translate(354,157)"/>
<path d="M0 0 C0.99 0 1.98 0 3 0 C3 1.32 3 2.64 3 4 C3.66 4 4.32 4 5 4 C4.52060632 8.71403788 4.03165952 12.66579301 2 17 C1.01 16.67 0.02 16.34 -1 16 C-1.02685095 13.52076199 -1.04676547 11.0418116 -1.0625 8.5625 C-1.07506836 7.50192383 -1.07506836 7.50192383 -1.08789062 6.41992188 C-1.09653588 4.61306441 -1.05220011 2.80612397 -1 1 C-0.67 0.67 -0.34 0.34 0 0 Z " fill="#181616" transform="translate(394,234)"/>
<path d="M0 0 C0.598125 0.309375 1.19625 0.61875 1.8125 0.9375 C4.08956772 2.10209704 4.08956772 2.10209704 7 3 C6.67 3.66 6.34 4.32 6 5 C6 5.66 6 6.32 6 7 C6.66 7.66 7.32 8.32 8 9 C8.33 9.99 8.66 10.98 9 12 C4.89041233 10.54955729 1.56741255 8.48889248 -2 6 C-1.34 4.02 -0.68 2.04 0 0 Z " fill="#564C48" transform="translate(149,362)"/>
<path d="M0 0 C2 1 4 2 6 3 C6 3.66 6 4.32 6 5 C7.32 5.66 8.64 6.32 10 7 C9.67 7.66 9.34 8.32 9 9 C8.34 9 7.68 9 7 9 C6.34 9.66 5.68 10.32 5 11 C4.67 9.68 4.34 8.36 4 7 C2.68 7.33 1.36 7.66 0 8 C-0.38063221 5.6739143 -0.71269945 3.33944736 -1 1 C-0.67 0.67 -0.34 0.34 0 0 Z " fill="#353131" transform="translate(71,205)"/>
<path d="M0 0 C0 3.3 0 6.6 0 10 C-0.66 8.68 -1.32 7.36 -2 6 C-2.66 6.66 -3.32 7.32 -4 8 C-4.66 7.34 -5.32 6.68 -6 6 C-7.32 7.32 -8.64 8.64 -10 10 C-10.66 9.34 -11.32 8.68 -12 8 C-10.87811441 6.85111717 -9.75238316 5.70598863 -8.625 4.5625 C-7.99851563 3.92441406 -7.37203125 3.28632813 -6.7265625 2.62890625 C-4.29268539 0.33269187 -3.4066481 0 0 0 Z " fill="#514E4F" transform="translate(137,216)"/>
<path d="M0 0 C0.33 0.66 0.66 1.32 1 2 C1.99 2.33 2.98 2.66 4 3 C4 5.64 4 8.28 4 11 C3.01 11 2.02 11 1 11 C1 11.66 1 12.32 1 13 C0.34 13 -0.32 13 -1 13 C-1.2236337 11.58566794 -1.42826476 10.16832382 -1.625 8.75 C-1.74101562 7.96109375 -1.85703125 7.1721875 -1.9765625 6.359375 C-2.00319395 3.67847541 -1.36592084 2.27305911 0 0 Z " fill="#1A1416" transform="translate(364,162)"/>
<path d="M0 0 C0.12375 0.969375 0.2475 1.93875 0.375 2.9375 C0.58125 3.948125 0.7875 4.95875 1 6 C1.66 6.33 2.32 6.66 3 7 C-0.75 9 -0.75 9 -3 9 C-3 8.34 -3 7.68 -3 7 C-4.32 6.34 -5.64 5.68 -7 5 C-6.1875 3.0625 -6.1875 3.0625 -5 1 C-2 0 -2 0 0 0 Z " fill="#171010" transform="translate(128,338)"/>
<path d="M0 0 C1.21816406 0.03480469 1.21816406 0.03480469 2.4609375 0.0703125 C3.68683594 0.09738281 3.68683594 0.09738281 4.9375 0.125 C5.87722656 0.15980469 5.87722656 0.15980469 6.8359375 0.1953125 C6.33294962 4.59645647 4.74821019 6.90726269 1.8359375 10.1953125 C1.8359375 8.2153125 1.8359375 6.2353125 1.8359375 4.1953125 C0.8459375 4.1953125 -0.1440625 4.1953125 -1.1640625 4.1953125 C-1.4940625 4.8553125 -1.8240625 5.5153125 -2.1640625 6.1953125 C-2.8240625 4.8753125 -3.4840625 3.5553125 -4.1640625 2.1953125 C-2.1640625 0.1953125 -2.1640625 0.1953125 0 0 Z " fill="#403C3D" transform="translate(373.1640625,333.8046875)"/>
<path d="M0 0 C2.125 0.9375 2.125 0.9375 4 2 C1 4 1 4 -2.0625 5.3125 C-5.40413497 7.23216264 -6.01589421 8.35880858 -7 12 C-7.185625 11.1646875 -7.185625 11.1646875 -7.375 10.3125 C-8.05976855 7.77885636 -8.99133763 5.42078968 -10 3 C-8.68 3.33 -7.36 3.66 -6 4 C-6 3.34 -6 2.68 -6 2 C-5.38125 1.855625 -4.7625 1.71125 -4.125 1.5625 C-1.96741678 1.06847775 -1.96741678 1.06847775 0 0 Z " fill="#353132" transform="translate(393,314)"/>
<path d="M0 0 C0 0.99 0 1.98 0 3 C0.62599617 4.68236471 1.28752268 6.3523962 2 8 C-0.31 9.65 -2.62 11.3 -5 13 C-5.875 9.875 -5.875 9.875 -6 6 C-4.25324589 3.52229648 -2.35551697 1.97094277 0 0 Z " fill="#454243" transform="translate(147,155)"/>
<path d="M0 0 C1.5625 1.625 1.5625 1.625 3 4 C2.6875 7.25 2.6875 7.25 2 10 C1.34 10 0.68 10 0 10 C0 9.34 0 8.68 0 8 C-0.45375 8.495 -0.9075 8.99 -1.375 9.5 C-3 11 -3 11 -5 11 C-5.33 11.66 -5.66 12.32 -6 13 C-7 10 -7 10 -6 7 C-4.68 7 -3.36 7 -2 7 C-1.34 4.69 -0.68 2.38 0 0 Z " fill="#191415" transform="translate(383,318)"/>
<path d="M0 0 C0.66 0 1.32 0 2 0 C1.67 1.093125 1.34 2.18625 1 3.3125 C-0.13086649 6.84578884 -0.13086649 6.84578884 0 10 C-2.31 10.33 -4.62 10.66 -7 11 C-7 7.23312136 -6.76462683 6.08809695 -5 3 C-4.34 4.32 -3.68 5.64 -3 7 C-1.79371992 4.66785852 -0.8345262 2.50357861 0 0 Z " fill="#171313" transform="translate(138,163)"/>
<path d="M0 0 C1.65 0 3.3 0 5 0 C3.59928507 5.29158974 0.14512755 7.77478044 -4 11 C-4.25 8.75 -4.25 8.75 -4 6 C-2 3.8125 -2 3.8125 0 2 C0 1.34 0 0.68 0 0 Z " fill="#393637" transform="translate(418,332)"/>
<path d="M0 0 C3.125 6.25 3.125 6.25 2 11 C1.01 11.33 0.02 11.66 -1 12 C-1.66 12.66 -2.32 13.32 -3 14 C-4.17571451 10.32589215 -4.07366746 6.83070817 -4 3 C-3.67 3 -3.34 3 -3 3 C-2.67 3.99 -2.34 4.98 -2 6 C-1.34 4.02 -0.68 2.04 0 0 Z " fill="#181314" transform="translate(398,242)"/>
<path d="M0 0 C0.66 0 1.32 0 2 0 C3.13016601 5.02296004 2.77916092 8.97874074 2 14 C2.66 14.33 3.32 14.66 4 15 C3.34 15 2.68 15 2 15 C2 16.98 2 18.96 2 21 C1.67 21 1.34 21 1 21 C0.07907719 16.34462644 -0.12205997 11.85314567 -0.0625 7.125 C-0.05798828 6.43664062 -0.05347656 5.74828125 -0.04882812 5.0390625 C-0.03716336 3.35933665 -0.01923271 1.67965625 0 0 Z " fill="#524E4E" transform="translate(332,340)"/>
<path d="M0 0 C0.66 0 1.32 0 2 0 C3.2890625 1.75 3.2890625 1.75 4.625 4 C5.07101563 4.7425 5.51703125 5.485 5.9765625 6.25 C6.31429687 6.8275 6.65203125 7.405 7 8 C5 8 3 8 1 8 C0.67 8.66 0.34 9.32 0 10 C-0.99 9.34 -1.98 8.68 -3 8 C-2.319375 7.4225 -1.63875 6.845 -0.9375 6.25 C0.0215625 5.13625 0.0215625 5.13625 1 4 C0.86358623 1.78141747 0.86358623 1.78141747 0 0 Z " fill="#413B3B" transform="translate(129,341)"/>
<path d="M0 0 C0.33 0.66 0.66 1.32 1 2 C3.01669827 3.13350534 3.01669827 3.13350534 5 4 C3.68 4.33 2.36 4.66 1 5 C1.99 6.32 2.98 7.64 4 9 C0.08788267 7.84414715 -2.8745041 6.64465038 -6 4 C-5.01 3.01 -4.02 2.02 -3 1 C-2.01 1.33 -1.02 1.66 0 2 C0 1.34 0 0.68 0 0 Z " fill="#4A4342" transform="translate(164,370)"/>
<path d="M0 0 C0 1.98 0 3.96 0 6 C-6.15234375 5.4140625 -6.15234375 5.4140625 -8 5 C-8.33 4.34 -8.66 3.68 -9 3 C-5.55930376 0.70620251 -4.27709699 0 0 0 Z " fill="#1D181A" transform="translate(354,156)"/>
<path d="M0 0 C1.32 0.66 2.64 1.32 4 2 C3.67 3.98 3.34 5.96 3 8 C3.66 8.33 4.32 8.66 5 9 C1.31245243 8.50168276 -0.60490662 7.89932357 -3 5 C-2.34 5 -1.68 5 -1 5 C-0.67 3.35 -0.34 1.7 0 0 Z " fill="#3C312D" transform="translate(145,358)"/>
<path d="M0 0 C0.99 0 1.98 0 3 0 C3 0.66 3 1.32 3 2 C3.66 2 4.32 2 5 2 C5.33 3.32 5.66 4.64 6 6 C4.02 6.99 4.02 6.99 2 8 C1.01 7.34 0.02 6.68 -1 6 C-0.67 4.02 -0.34 2.04 0 0 Z " fill="#484746" transform="translate(359,263)"/>
<path d="M0 0 C0.06058594 0.66386719 0.12117188 1.32773438 0.18359375 2.01171875 C0.79863507 8.54908081 0.79863507 8.54908081 2 15 C1.01 15 0.02 15 -1 15 C-1.03738281 14.37351563 -1.07476562 13.74703125 -1.11328125 13.1015625 C-1.17902344 12.28429687 -1.24476562 11.46703125 -1.3125 10.625 C-1.37050781 9.81289062 -1.42851563 9.00078125 -1.48828125 8.1640625 C-1.82990528 5.62078662 -1.82990528 5.62078662 -5 4 C-1.125 0 -1.125 0 0 0 Z " fill="#171111" transform="translate(111,190)"/>
<path d="M0 0 C-3.13334885 2.53078176 -6.24530187 4.51376532 -10 6 C-12.375 5.1875 -12.375 5.1875 -14 4 C-13.01 3.67 -12.02 3.34 -11 3 C-10.67 2.34 -10.34 1.68 -10 1 C-6.70581806 -0.22006738 -3.47634765 -0.0790079 0 0 Z " fill="#4E4B4B" transform="translate(398,354)"/>
<path d="M0 0 C0.66 0.66 1.32 1.32 2 2 C1.67 2.99 1.34 3.98 1 5 C1.66 5.33 2.32 5.66 3 6 C3 7.32 3 8.64 3 10 C2.01 9.67 1.02 9.34 0 9 C-0.66 9.66 -1.32 10.32 -2 11 C-2.94296589 7.33291043 -3.11421833 4.64653273 -2 1 C-1.34 0.67 -0.68 0.34 0 0 Z " fill="#1B1414" transform="translate(104,264)"/>
<path d="M0 0 C0.66 0.33 1.32 0.66 2 1 C1.67 2.32 1.34 3.64 1 5 C1.99 5.33 2.98 5.66 4 6 C3.67 7.65 3.34 9.3 3 11 C1.02 9.35 -0.96 7.7 -3 6 C-2.01 4.02 -1.02 2.04 0 0 Z " fill="#464445" transform="translate(359,161)"/>
<path d="M0 0 C0.33 0 0.66 0 1 0 C1.33 3.96 1.66 7.92 2 12 C-1 13 -1 13 -4 12 C-4.33 11.01 -4.66 10.02 -5 9 C-4.34 8.34 -3.68 7.68 -3 7 C-2.67 7.99 -2.34 8.98 -2 10 C-1.34 9.01 -0.68 8.02 0 7 C-0.66 6.67 -1.32 6.34 -2 6 C-1.34 6 -0.68 6 0 6 C0 4.02 0 2.04 0 0 Z " fill="#64605F" transform="translate(108,286)"/>
<path d="M0 0 C0.33 0.99 0.66 1.98 1 3 C1.66 3.33 2.32 3.66 3 4 C3 4.66 3 5.32 3 6 C4.98075027 7.36176581 6.98079663 8.69593116 9 10 C9 10.33 9 10.66 9 11 C6.69 10.67 4.38 10.34 2 10 C2 9.34 2 8.68 2 8 C1.34 8 0.68 8 0 8 C0 5.36 0 2.72 0 0 Z " fill="#5B5557" transform="translate(362,172)"/>
<path d="M0 0 C0.33 0 0.66 0 1 0 C1.08090971 1.62418745 1.13914995 3.24951745 1.1875 4.875 C1.22230469 5.77992188 1.25710937 6.68484375 1.29296875 7.6171875 C1.19628906 8.40351563 1.09960938 9.18984375 1 10 C0.01 10.66 -0.98 11.32 -2 12 C-3.17571451 8.32589215 -3.07366746 4.83070817 -3 1 C-2.34 1.66 -1.68 2.32 -1 3 C-0.67 2.01 -0.34 1.02 0 0 Z " fill="#191414" transform="translate(107,285)"/>
<path d="M0 0 C0 0.99 0 1.98 0 3 C-2.75 4.1875 -2.75 4.1875 -6 5 C-8.375 3.625 -8.375 3.625 -10 2 C-6.49223216 0.39644899 -3.85645121 -0.22036864 0 0 Z M-10 4 C-8 5 -8 5 -8 5 Z " fill="#4E4B4C" transform="translate(439,266)"/>
<path d="M0 0 C0.66 0 1.32 0 2 0 C1.34 3.3 0.68 6.6 0 10 C-1.33333333 10 -2.66666667 10 -4 10 C-4 7.36 -4 4.72 -4 2 C-2.68 2.33 -1.36 2.66 0 3 C0 2.01 0 1.02 0 0 Z " fill="#4B484A" transform="translate(397,240)"/>
<path d="M0 0 C0.33 0 0.66 0 1 0 C1 2.31 1 4.62 1 7 C1.99 7.33 2.98 7.66 4 8 C3.67 8.66 3.34 9.32 3 10 C-0.0625 10.625 -0.0625 10.625 -3 11 C-2.44894091 7.0507432 -1.61064629 3.65079826 0 0 Z " fill="#3E3939" transform="translate(403,236)"/>
<path d="M0 0 C0.33 2.31 0.66 4.62 1 7 C-0.9375 7.5625 -0.9375 7.5625 -3 8 C-4 7 -4 7 -4.0625 3.9375 C-4.041875 2.968125 -4.02125 1.99875 -4 1 C-2 0 -2 0 0 0 Z " fill="#201C1C" transform="translate(126,143)"/>
<path d="M0 0 C0.33 0 0.66 0 1 0 C1 3.96 1 7.92 1 12 C-0.65 12 -2.3 12 -4 12 C-3.71125 11.319375 -3.4225 10.63875 -3.125 9.9375 C-1.87402645 6.67106907 -0.92552045 3.37153877 0 0 Z " fill="#171415" transform="translate(135,217)"/>
<path d="M0 0 C0.66 0 1.32 0 2 0 C1.54663921 4.87362847 0.2910841 7.39042389 -3 11 C-3.66 10.67 -4.32 10.34 -5 10 C-3.35 6.7 -1.7 3.4 0 0 Z " fill="#443F3E" transform="translate(401,152)"/>
<path d="M0 0 C0.66 0.33 1.32 0.66 2 1 C0.35 4.3 -1.3 7.6 -3 11 C-4.32 11 -5.64 11 -7 11 C-5.47038014 7.55835531 -3.37270934 4.90848242 -1 2 C-0.67 1.34 -0.34 0.68 0 0 Z " fill="#494647" transform="translate(369,341)"/>
<path d="M0 0 C0.33 0.99 0.66 1.98 1 3 C1.66 3.33 2.32 3.66 3 4 C2.566875 4.391875 2.13375 4.78375 1.6875 5.1875 C-0.26366224 7.28319278 -1.59010162 9.51589333 -3 12 C-3.66 11.67 -4.32 11.34 -5 11 C-3.35 7.37 -1.7 3.74 0 0 Z " fill="#383333" transform="translate(343,306)"/>
<path d="M0 0 C0.66666667 2.66666667 1.33333333 5.33333333 2 8 C-2.75 7.25 -2.75 7.25 -5 5 C-3.35 3.35 -1.7 1.7 0 0 Z " fill="#3F3B37" transform="translate(356,356)"/>
<path d="M0 0 C1.98 0.66 3.96 1.32 6 2 C5.67 3.65 5.34 5.3 5 7 C4.34 7 3.68 7 3 7 C3 6.34 3 5.68 3 5 C2.01 4.67 1.02 4.34 0 4 C-0.33 3.01 -0.66 2.02 -1 1 C-0.67 0.67 -0.34 0.34 0 0 Z " fill="#312B2A" transform="translate(77,331)"/>
<path d="M0 0 C-1.5 2 -1.5 2 -4 4 C-6.75871627 4.35800135 -9.20097524 4.18660165 -12 4 C-4.75 -1.69642857 -4.75 -1.69642857 0 0 Z " fill="#423F3E" transform="translate(179,136)"/>
<path d="M0 0 C0.99 0.33 1.98 0.66 3 1 C3.33 2.98 3.66 4.96 4 7 C3.34 7 2.68 7 2 7 C2 6.34 2 5.68 2 5 C1.01 5 0.02 5 -1 5 C-1.33 5.66 -1.66 6.32 -2 7 C-2 3 -2 3 0 0 Z " fill="#464343" transform="translate(136,117)"/>
<path d="M0 0 C1.32 0 2.64 0 4 0 C4.33 0.99 4.66 1.98 5 3 C3.35 4.32 1.7 5.64 0 7 C-0.66 6.67 -1.32 6.34 -2 6 C-1.34 4.02 -0.68 2.04 0 0 Z " fill="#0C0404" transform="translate(345,361)"/>
<path d="M0 0 C0.99 0 1.98 0 3 0 C3 2.64 3 5.28 3 8 C2.34 8 1.68 8 1 8 C1.33 6.68 1.66 5.36 2 4 C1.01 4.495 1.01 4.495 0 5 C0 5.99 0 6.98 0 8 C-0.99 7.67 -1.98 7.34 -3 7 C-2.01 4.69 -1.02 2.38 0 0 Z " fill="#1A1516" transform="translate(372,338)"/>
<path d="M0 0 C1.64826111 2.96687001 2.44271087 5.65626525 3 9 C2.34 9 1.68 9 1 9 C0.34 8.01 -0.32 7.02 -1 6 C-1.33 6 -1.66 6 -2 6 C-2.33 7.65 -2.66 9.3 -3 11 C-3.33 11 -3.66 11 -4 11 C-4.125 4.25 -4.125 4.25 -3 2 C-2.34 2 -1.68 2 -1 2 C-0.67 1.34 -0.34 0.68 0 0 Z " fill="#716F6D" transform="translate(396,229)"/>
<path d="M0 0 C2.97 0 5.94 0 9 0 C9.33 0.66 9.66 1.32 10 2 C9.34 2 8.68 2 8 2 C7.67 3.32 7.34 4.64 7 6 C6.401875 5.38125 5.80375 4.7625 5.1875 4.125 C2.99188856 1.86323046 2.99188856 1.86323046 0 0 Z " fill="#221B17" transform="translate(162,374)"/>
<path d="M0 0 C2.97 0 5.94 0 9 0 C9 0.66 9 1.32 9 2 C9.66 2.33 10.32 2.66 11 3 C9.35 3.66 7.7 4.32 6 5 C5.67 4.01 5.34 3.02 5 2 C3.35 1.67 1.7 1.34 0 1 C0 0.67 0 0.34 0 0 Z " fill="#1D1718" transform="translate(409,332)"/>
<path d="M0 0 C1.32 0.33 2.64 0.66 4 1 C4.625 3.3125 4.625 3.3125 5 6 C4.01 7.485 4.01 7.485 3 9 C0 3.375 0 3.375 0 0 Z " fill="#4A4545" transform="translate(117,329)"/>
<path d="M0 0 C0.99 0 1.98 0 3 0 C2.375 2.375 2.375 2.375 1 5 C-2.125 6.3125 -2.125 6.3125 -5 7 C-4.67 5.35 -4.34 3.7 -4 2 C-3.01 2.33 -2.02 2.66 -1 3 C-0.67 2.01 -0.34 1.02 0 0 Z " fill="#161111" transform="translate(394,296)"/>
<path d="M0 0 C1.53166168 4.08443115 0.63081652 7.79455657 0 12 C-0.66 12 -1.32 12 -2 12 C-1.85831863 10.56208484 -1.71148957 9.1246763 -1.5625 7.6875 C-1.48128906 6.88699219 -1.40007812 6.08648437 -1.31640625 5.26171875 C-1 3 -1 3 0 0 Z M2 8 C2.66 8 3.32 8 4 8 C4 9.65 4 11.3 4 13 C3.67 12.34 3.34 11.68 3 11 C2.01 10.67 1.02 10.34 0 10 C0.66 9.34 1.32 8.68 2 8 Z " fill="#605E5E" transform="translate(105,221)"/>
<path d="M0 0 C2.475 0.99 2.475 0.99 5 2 C4.01 2.33 3.02 2.66 2 3 C2 3.99 2 4.98 2 6 C-0.31 5.67 -2.62 5.34 -5 5 C-3.35 3.35 -1.7 1.7 0 0 Z M0 3 C-0.33 3.66 -0.66 4.32 -1 5 C-0.34 5 0.32 5 1 5 C0.67 4.34 0.34 3.68 0 3 Z " fill="#545150" transform="translate(134,174)"/>
<path d="M0 0 C0 0.66 0 1.32 0 2 C-0.66 2 -1.32 2 -2 2 C-2.33 2.99 -2.66 3.98 -3 5 C-3.99 5 -4.98 5 -6 5 C-6 4.34 -6 3.68 -6 3 C-7.32 2.67 -8.64 2.34 -10 2 C-6.38026598 0.68373308 -3.90432869 0 0 0 Z " fill="#444141" transform="translate(161,167)"/>
<path d="M0 0 C1.32 0.66 2.64 1.32 4 2 C3.67 2.66 3.34 3.32 3 4 C2.01 3.67 1.02 3.34 0 3 C0.33 5.64 0.66 8.28 1 11 C0.01 11.33 -0.98 11.66 -2 12 C-1.85904936 10.3745692 -1.71207913 8.74965949 -1.5625 7.125 C-1.48128906 6.22007812 -1.40007812 5.31515625 -1.31640625 4.3828125 C-1 2 -1 2 0 0 Z " fill="#4C4A4B" transform="translate(151,300)"/>
<path d="M0 0 C1.13199353 0.9080162 2.25532363 1.82683826 3.375 2.75 C4.00148438 3.26046875 4.62796875 3.7709375 5.2734375 4.296875 C7.08312318 6.08199481 8.00117455 7.67949644 9 10 C6.03 9.505 6.03 9.505 3 9 C3.33 7.68 3.66 6.36 4 5 C3.34 5 2.68 5 2 5 C2 4.34 2 3.68 2 3 C1.34 3 0.68 3 0 3 C0 2.01 0 1.02 0 0 Z " fill="#4A4644" transform="translate(94,285)"/>
<path d="M0 0 C-2.79496066 2.79496066 -5.13595584 2.66104876 -9 3 C-9.99 2.67 -10.98 2.34 -12 2 C-12 1.34 -12 0.68 -12 0 C-7.74433453 -1.16063604 -4.3164922 -0.76173392 0 0 Z " fill="#3B3839" transform="translate(412,333)"/>
<path d="M0 0 C6.75 0.75 6.75 0.75 9 3 C8.34 3 7.68 3 7 3 C6.67 3.66 6.34 4.32 6 5 C4.68 4.34 3.36 3.68 2 3 C1.67 3.66 1.34 4.32 1 5 C0.67 3.35 0.34 1.7 0 0 Z " fill="#4F4D4E" transform="translate(62,266)"/>
<path d="M0 0 C2.97246802 2.54782974 4.41535288 5.45340883 6 9 C6 9.66 6 10.32 6 11 C5.01 10.67 4.02 10.34 3 10 C3 9.34 3 8.68 3 8 C2.34 7.67 1.68 7.34 1 7 C0.59270772 4.67843403 0.25561323 2.3431213 0 0 Z " fill="#4A4847" transform="translate(91,227)"/>
<path d="M0 0 C0.33 0 0.66 0 1 0 C1.22304441 1.74818591 1.4278645 3.49870323 1.625 5.25 C1.74101562 6.22453125 1.85703125 7.1990625 1.9765625 8.203125 C2.00112537 11.13429393 1.5312717 12.54528964 0 15 C-0.22786458 12.98177083 -0.45572917 10.96354167 -0.68359375 8.9453125 C-0.91292961 6.92595684 -0.91292961 6.92595684 -2 5 C-1.34 5 -0.68 5 0 5 C0 3.35 0 1.7 0 0 Z " fill="#3A393A" transform="translate(379,150)"/>
<path d="M0 0 C0.99 0 1.98 0 3 0 C3 2.31 3 4.62 3 7 C1.68 6.67 0.36 6.34 -1 6 C-0.67 4.02 -0.34 2.04 0 0 Z " fill="#201D1D" transform="translate(345,303)"/>
<path d="M0 0 C0.99 0.33 1.98 0.66 3 1 C3 3.97 3 6.94 3 10 C0.51280729 7.08025204 -0.58572305 4.83206182 -1 1 C-0.67 0.67 -0.34 0.34 0 0 Z " fill="#373434" transform="translate(76,235)"/>
<path d="M0 0 C3.65316671 1.24976756 4.78065836 1.67098753 7 5 C5.35 5 3.7 5 2 5 C1.67 5.66 1.34 6.32 1 7 C-0.0625 5.1875 -0.0625 5.1875 -1 3 C-0.67 2.01 -0.34 1.02 0 0 Z " fill="#66696B" transform="translate(363,215)"/>
<path d="M0 0 C0.66 0.33 1.32 0.66 2 1 C2 2.65 2 4.3 2 6 C1.360625 6.12375 0.72125 6.2475 0.0625 6.375 C-0.9584375 6.684375 -0.9584375 6.684375 -2 7 C-2.33 7.66 -2.66 8.32 -3 9 C-3.66 9 -4.32 9 -5 9 C-3.25 5.125 -3.25 5.125 -1 4 C-0.34786708 1.97536745 -0.34786708 1.97536745 0 0 Z " fill="#201B1A" transform="translate(414,278)"/>
<path d="M0 0 C0 1.98 0 3.96 0 6 C-0.33 5.01 -0.66 4.02 -1 3 C-1.66 3 -2.32 3 -3 3 C-3 3.66 -3 4.32 -3 5 C-3.99 4.67 -4.98 4.34 -6 4 C-5.67 3.01 -5.34 2.02 -5 1 C-3 0 -3 0 0 0 Z " fill="#433E3D" transform="translate(144,273)"/>
<path d="M0 0 C2.79872437 2.52788007 4.45773019 4.20411134 5 8 C2.13275314 7.42655063 1.1385485 7.1385485 -1 5 C-0.625 2.375 -0.625 2.375 0 0 Z " fill="#413E3E" transform="translate(379,231)"/>
<path d="M0 0 C1.485 0.99 1.485 0.99 3 2 C3 2.99 3 3.98 3 5 C3.66 5.33 4.32 5.66 5 6 C3.02 6.99 3.02 6.99 1 8 C1 7.01 1 6.02 1 5 C0.34 5 -0.32 5 -1 5 C-0.67 3.35 -0.34 1.7 0 0 Z " fill="#171413" transform="translate(91,168)"/>
<path d="M0 0 C2 3 2 3 2 5 C2.66 5.33 3.32 5.66 4 6 C1.03 6 -1.94 6 -5 6 C-4.67 5.34 -4.34 4.68 -4 4 C-3.01 4 -2.02 4 -1 4 C-0.67 2.68 -0.34 1.36 0 0 Z " fill="#1D1616" transform="translate(343,365)"/>
<path d="M0 0 C1.32 0.33 2.64 0.66 4 1 C4 1.99 4 2.98 4 4 C2.02 4.99 0.04 5.98 -2 7 C-1.34 4.69 -0.68 2.38 0 0 Z " fill="#2F2A2C" transform="translate(106,225)"/>
<path d="M0 0 C0 3.99904969 -1.72586967 5.80200422 -4 9 C-4.99 8.34 -5.98 7.68 -7 7 C-4.69 4.69 -2.38 2.38 0 0 Z " fill="#767373" transform="translate(132,217)"/>
<path d="M0 0 C0.66 0 1.32 0 2 0 C2.66 1.98 3.32 3.96 4 6 C3.01 6 2.02 6 1 6 C0.34 6.99 -0.32 7.98 -1 9 C-0.67 6.03 -0.34 3.06 0 0 Z " fill="#58585A" transform="translate(362,115)"/>
<path d="M0 0 C3.465 1.485 3.465 1.485 7 3 C6.01 3.99 5.02 4.98 4 6 C2.62437146 4.71034824 1.29233607 3.37310707 0 2 C0 1.34 0 0.68 0 0 Z " fill="#35302F" transform="translate(349,361)"/>
<path d="M0 0 C0.33 0 0.66 0 1 0 C1 1.98 1 3.96 1 6 C1.99 6.33 2.98 6.66 4 7 C4 7.66 4 8.32 4 9 C2.02 9.99 2.02 9.99 0 11 C0 7.37 0 3.74 0 0 Z " fill="#191516" transform="translate(148,317)"/>
<path d="M0 0 C-1.25125384 3.75376152 -2.5652404 4.24073289 -6 6 C-6.66 6 -7.32 6 -8 6 C-8 5.01 -8 4.02 -8 3 C-2.25 0 -2.25 0 0 0 Z " fill="#595857" transform="translate(409,308)"/>
<path d="M0 0 C0.33 0 0.66 0 1 0 C1.66 3.63 2.32 7.26 3 11 C2.01 11 1.02 11 0 11 C0 7.37 0 3.74 0 0 Z " fill="#535251" transform="translate(112,302)"/>
<path d="M0 0 C1.32 0.66 2.64 1.32 4 2 C2.71034824 3.37562854 1.37310707 4.70766393 0 6 C-0.66 6 -1.32 6 -2 6 C-2.33 5.01 -2.66 4.02 -3 3 C-2.01 2.67 -1.02 2.34 0 2 C0 1.34 0 0.68 0 0 Z " fill="#5A4D52" transform="translate(415,299)"/>
<path d="M0 0 C1.32 1.32 2.64 2.64 4 4 C3.34 4.66 2.68 5.32 2 6 C1.30251417 7.31747324 0.63040043 8.64914193 0 10 C-0.95024979 6.30458414 -0.95024979 3.69541586 0 0 Z " fill="#1D1A1A" transform="translate(364,217)"/>
<path d="M0 0 C0.99 0 1.98 0 3 0 C3 1.65 3 3.3 3 5 C2.01 5.33 1.02 5.66 0 6 C-0.38218767 4.34385343 -0.71395102 2.67542976 -1 1 C-0.67 0.67 -0.34 0.34 0 0 Z " fill="#1C1716" transform="translate(391,220)"/>
<path d="M0 0 C1.32 0.66 2.64 1.32 4 2 C3.01 3.98 2.02 5.96 1 8 C0.67 8 0.34 8 0 8 C-0.38063221 5.6739143 -0.71269945 3.33944736 -1 1 C-0.67 0.67 -0.34 0.34 0 0 Z " fill="#434141" transform="translate(71,205)"/>
<path d="M0 0 C1.32 0.33 2.64 0.66 4 1 C3.34 2.32 2.68 3.64 2 5 C2 4.34 2 3.68 2 3 C0.35 3.33 -1.3 3.66 -3 4 C-2.01 2.68 -1.02 1.36 0 0 Z " fill="#2E262A" transform="translate(378,331)"/>
<path d="M0 0 C1.32 0.66 2.64 1.32 4 2 C1.38058783 3.74627478 -0.03824877 4.38722388 -3 5 C-3.33 4.34 -3.66 3.68 -4 3 C-2.68 2.01 -1.36 1.02 0 0 Z " fill="#413E40" transform="translate(393,314)"/>
<path d="M0 0 C2 1.8125 2 1.8125 4 4 C4 4.99 4 5.98 4 7 C2 7 2 7 0.4375 5.6875 C-1 4 -1 4 -2 1 C-1.34 0.67 -0.68 0.34 0 0 Z " fill="#161110" transform="translate(395,267)"/>
<path d="M0 0 C3.125 6.25 3.125 6.25 2 11 C1.34 10.67 0.68 10.34 0 10 C-0.89093449 6.35526801 -1.23666047 3.57257469 0 0 Z " fill="#0D0808" transform="translate(398,242)"/>
<path d="M0 0 C2 2 2 2 2.1953125 4.3828125 C2.17210938 5.28773438 2.14890625 6.19265625 2.125 7.125 C2.10695313 8.03507813 2.08890625 8.94515625 2.0703125 9.8828125 C2.03550781 10.93082031 2.03550781 10.93082031 2 12 C1.67 12 1.34 12 1 12 C1 9.69 1 7.38 1 5 C0.34 5 -0.32 5 -1 5 C-0.67 3.35 -0.34 1.7 0 0 Z " fill="#605F5F" transform="translate(105,237)"/>
<path d="M0 0 C0.99 0.33 1.98 0.66 3 1 C2.67 1.66 2.34 2.32 2 3 C1.01 3 0.02 3 -1 3 C-1.33 3.66 -1.66 4.32 -2 5 C-2.99 5.33 -3.98 5.66 -5 6 C-5 4.68 -5 3.36 -5 2 C-3.35 1.67 -1.7 1.34 0 1 C0 0.67 0 0.34 0 0 Z " fill="#201A1A" transform="translate(370,226)"/>
<path d="M0 0 C3.68266103 0.59950296 7.34543185 1.24758891 11 2 C11 2.33 11 2.66 11 3 C8 3 5 3 2 3 C1.34 2.01 0.68 1.02 0 0 Z " fill="#655F5D" transform="translate(174,376)"/>
<path d="M0 0 C0.66 0 1.32 0 2 0 C2 2.64 2 5.28 2 8 C1.34 8 0.68 8 0 8 C-0.38063221 5.6739143 -0.71269945 3.33944736 -1 1 C-0.67 0.67 -0.34 0.34 0 0 Z " fill="#201815" transform="translate(164,356)"/>
<path d="M0 0 C1.32 0.99 2.64 1.98 4 3 C3.34 3 2.68 3 2 3 C2 3.66 2 4.32 2 5 C0.68 5 -0.64 5 -2 5 C-1.125 1.125 -1.125 1.125 0 0 Z " fill="#1E1A19" transform="translate(404,288)"/>
<path d="M0 0 C0.33 0 0.66 0 1 0 C1.33 2.64 1.66 5.28 2 8 C0.68 8.33 -0.64 8.66 -2 9 C-1.34 6.03 -0.68 3.06 0 0 Z " fill="#3E3A3B" transform="translate(137,263)"/>
<path d="M0 0 C1.32 0.33 2.64 0.66 4 1 C3.67 3.31 3.34 5.62 3 8 C1.0549 5.08235 0.54723683 3.37462715 0 0 Z " fill="#383736" transform="translate(369,248)"/>
<path d="M0 0 C1.54571278 2.31856917 2.79618552 4.50638429 4 7 C3.34 7.66 2.68 8.32 2 9 C0.4375 7.3125 0.4375 7.3125 -1 5 C-0.6875 2.25 -0.6875 2.25 0 0 Z " fill="#150F11" transform="translate(99,245)"/>
<path d="M0 0 C1.9451 2.91765 2.45276317 4.62537285 3 8 C1.68 7.67 0.36 7.34 -1 7 C-0.67 4.69 -0.34 2.38 0 0 Z " fill="#434242" transform="translate(386,242)"/>
<path d="M0 0 C1.485 0.99 1.485 0.99 3 2 C2.67 3.98 2.34 5.96 2 8 C1.34 8 0.68 8 0 8 C0 5.36 0 2.72 0 0 Z " fill="#393738" transform="translate(102,234)"/>
<path d="M0 0 C0.33 0.66 0.66 1.32 1 2 C-0.423125 2.433125 -0.423125 2.433125 -1.875 2.875 C-5.05211578 3.76825109 -5.05211578 3.76825109 -7 6 C-7.33 4.35 -7.66 2.7 -8 1 C-5.36 0.67 -2.72 0.34 0 0 Z " fill="#5B5959" transform="translate(300,129)"/>
<path d="M0 0 C1.65 0 3.3 0 5 0 C4.67 0.66 4.34 1.32 4 2 C4.66 2.66 5.32 3.32 6 4 C3.36 3.67 0.72 3.34 -2 3 C-1.34 2.67 -0.68 2.34 0 2 C0 1.34 0 0.68 0 0 Z " fill="#574E4D" transform="translate(179,380)"/>
<path d="M0 0 C0.33 0.99 0.66 1.98 1 3 C0.01 4.485 0.01 4.485 -1 6 C-1.66 6 -2.32 6 -3 6 C-3 5.34 -3 4.68 -3 4 C-3.99 3.67 -4.98 3.34 -6 3 C-4.02 2.01 -2.04 1.02 0 0 Z " fill="#433F3B" transform="translate(335,371)"/>
<path d="M0 0 C1.09570312 0.10183594 2.19140625 0.20367187 3.3203125 0.30859375 C4.16335938 0.39238281 5.00640625 0.47617187 5.875 0.5625 C5.875 0.8925 5.875 1.2225 5.875 1.5625 C3.91810341 1.78392255 1.95938048 1.9892568 0 2.1875 C-1.63582031 2.36152344 -1.63582031 2.36152344 -3.3046875 2.5390625 C-4.70074219 2.55066406 -4.70074219 2.55066406 -6.125 2.5625 C-6.785 1.9025 -7.445 1.2425 -8.125 0.5625 C-5.28943413 -0.85528293 -3.1341294 -0.30007622 0 0 Z " fill="#545151" transform="translate(369.125,361.4375)"/>
<path d="M0 0 C2.31 0.66 4.62 1.32 7 2 C7 2.33 7 2.66 7 3 C4.69 3.66 2.38 4.32 0 5 C0 3.35 0 1.7 0 0 Z " fill="#514D4D" transform="translate(108,336)"/>
<path d="M0 0 C0.66 0.99 1.32 1.98 2 3 C2.66 3 3.32 3 4 3 C3.67 4.32 3.34 5.64 3 7 C2.67 6.34 2.34 5.68 2 5 C1.34 5 0.68 5 0 5 C-0.33 5.99 -0.66 6.98 -1 8 C-0.67 5.36 -0.34 2.72 0 0 Z " fill="#464043" transform="translate(390,293)"/>
<path d="M0 0 C2 3 2 3 2 7 C0.68 6.34 -0.64 5.68 -2 5 C-1.34 3.35 -0.68 1.7 0 0 Z " fill="#0C0708" transform="translate(364,162)"/>
</svg>
